<?xml version="1.0" encoding="utf-8"?>
<!-- Generator: Adobe Illustrator 27.4.1, SVG Export Plug-In . SVG Version: 6.00 Build 0)  -->
<svg version="1.1" id="Capa_1" xmlns="http://www.w3.org/2000/svg" xmlns:xlink="http://www.w3.org/1999/xlink" x="0px" y="0px"
	 viewBox="0 0 1080 1080" style="enable-background:new 0 0 1080 1080;" xml:space="preserve">
<path d="M921.4,707.2c-2.4,13.1-3.9,26.4-7.3,39.2c-17.8,66-62.6,103.9-127.6,119.1c-17.9,4.2-36.7,6-55.2,6.2
	c-60,0.8-119.9,0.3-179.9,0.2c-3.4,0-6.9-0.1-10-1.2c-6.6-2.3-9.3-7.4-8.4-14.2c0.9-6.5,4.9-10.3,11.4-11.1c2.8-0.4,5.8-0.2,8.6-0.2
	c60,0,119.9,0.1,179.9-0.1c30.8-0.1,60.3-6.1,87.9-20.3c41-21.2,63.3-55.8,70.8-100.6c7.2-42.7,0.8-84.5-9.6-125.9
	c-20.9-82.6-58.2-156.4-120.1-215.9c-19.5-18.7-42.5-33.8-63.9-50.5c-5.5-4.3-11.2-5.9-17.8-2c-3.2,1.9-7.2,2.5-11.6,3.9
	c11.6,10.9,22.8,21.1,33.7,31.6c6,5.8,6.3,13.5,1.4,19c-5.1,5.8-13,6-19.6,0.5c-1.6-1.3-3.1-2.8-4.6-4.3
	c-14.5-13.6-29.1-27.2-43.7-40.7c-2.1-2-4.7-3.4-9.2-6.5c0,11.1,0,19.9,0,28.6c0,4.5,0.1,8.9-0.1,13.4c-0.4,7.8-5.4,13.2-12.5,13.6
	c-7.3,0.4-13.6-4.9-14-12.9c-0.5-9.7-0.2-19.4-0.2-29.1c0-3.6,0-7.2,0-13c-4.1,2.7-6.8,3.9-8.8,5.8c-15.6,14.4-31,28.9-46.6,43.3
	c-7.8,7.3-15.7,7.7-21.4,1.4c-5.7-6.3-4.6-13.8,3.3-21.2c10.2-9.6,20.6-19.2,31.4-29.3c-6.5-2.3-12-4.7-17.7-6.1
	c-2.3-0.6-5.4,0.6-7.7,1.9c-42.3,24.4-77.2,57.3-107,95.8c-1.8,2.3-3.4,4.7-5.4,6.8c-5,5.2-12.3,5.9-17.8,1.7
	c-5.8-4.4-7.5-11.9-2.9-18.1c7.1-9.7,15-18.8,22.3-28.4c1.8-2.3,3.6-5.4,3.6-8.2c0.3-27.8,0.2-55.5,0.1-83.3c0-1-0.3-1.9-0.6-3.3
	c-48.7,21.1-97.1,21.3-146.2-0.1c0,32.1,0,63.8,0,95.4c12.4,2,25.2,2.6,36.9,6.4c13.5,4.3,26.8,10.3,38.9,17.7
	c12.2,7.5,17.6,19.8,17.5,34.8c-0.3,62.3-0.1,124.7-0.1,187c0,3.1,0,6.2,0,10.2c3.3,0,6.1,0.1,8.8,0c24-1,47.7,0.5,70.2,9.5
	c8.9,3.6,17.5,8.3,25.2,13.9c11.4,8.3,16.7,19.9,16.6,34.6c-0.3,54.7-0.4,109.5,0,164.2c0.1,16.3-6.5,28.2-19.2,37.3
	c-17.2,12.5-37.1,17.6-57.9,20.2c-34.2,4.3-67.3,0.6-98.4-15.7c-13.3,27.2-38.3,35.1-64.7,40.8c-5.8,1.3-11.8,2.1-17.7,3.2
	c-11.5,0-23,0-34.6,0c-2.5-0.5-5-1.2-7.6-1.6c-20.4-2.8-40-7.9-57-20.3c-12.3-9-19.4-20.6-18.8-36.7c0.6-17.5,1.1-35.1-0.1-52.6
	c-1.6-23.2,9.7-37.7,29-47.6c7.8-4,16.2-7,24.8-10.6c0-2.9,0-6,0-9.1c0-107.9,0.3-215.8-0.2-323.6c-0.1-19.6,8.1-32.9,24-42.7
	c14.9-9.2,31.4-14.2,48.7-16.1c6.4-0.7,8.1-3.1,8-9.3c-0.3-41.1,0-82.2-0.2-123.3c-0.1-13.3,4.7-24.3,15-32.2
	c7.4-5.7,15.6-10.8,24.2-14.3c29.4-11.8,60-13.3,91.1-8.7c18.8,2.8,36.8,8.1,52.4,19.6c12.3,9.1,19.1,20.7,18.7,36.7
	c-0.6,28.8-0.2,57.6-0.2,86.4c0,2.7,0,5.3,0,8.1c20.7-15.7,40.4-30.6,60.1-45.6c-0.1-0.2-0.3-0.7-0.7-1.1
	c-35.4-36.7-46.2-82.2-46.3-131.2c0-20.6,20.6-32.5,39.2-23.2c6.2,3.1,12.1,7.4,17.5,11.8c15,12.4,33.1,12.6,47.9,0
	c27.5-23.4,58.6-23.5,85.9-0.2c15.1,12.9,33,12.6,48.5-0.2c5.2-4.3,10.9-8.3,16.9-11.3c19.5-9.9,39.9,3.1,39.8,25
	c0,5.8-0.2,11.6-1.1,17.2c-1.1,7.1,0.7,10.7,8.3,13.6c35.8,13.8,61.3,64.4,22.9,102.6c-0.6,0.6-0.9,1.6-1.5,2.8
	c3.6,1,6.6,1.8,9.6,2.7c22.9,6.8,44.2,16.4,60.4,34.7c6,6.7,5.6,15.1-0.4,20.2c-5.9,5-13.1,4.1-19.4-2.3
	c-23.7-24.1-54.5-29.8-88.2-33.8c8.8,7.9,16.1,14.1,23.1,20.7c75.1,71.3,118.7,159.5,139.3,260c3.5,16.9,5.3,34,7.9,51.1
	C921.4,681,921.4,694.1,921.4,707.2z M197.7,779c32.4-3.2,63.4,0.6,93.6,15.6c0-3.8,0-6.4,0-8.9c0-26.7,0.8-53.4-0.3-80.1
	c-0.8-20.7,8.5-34.5,25.5-44.1c6.8-3.8,14-7.1,21.5-9.3c5.7-1.7,7-4.5,6.9-9.9c-0.2-51.3-0.1-102.6-0.1-153.9c0-2.3,0-4.6,0-7.8
	c-49.4,21.8-98.3,21.6-147.1,0.2C197.7,580.5,197.7,679.3,197.7,779z M318.1,735.2c0,42.5,0.8,83.9-0.4,125.3
	c-0.5,15.7,6.6,23.1,19.2,28.3c20.5,8.5,42,11,63.8,9.8c18.6-1,36.9-4.2,53.5-13.6c7.5-4.3,11.8-9.9,11.6-19.5
	c-0.5-40.6-0.2-81.2-0.2-121.8c0-2.5,0-5,0-8.3C416.2,756.9,367.6,757.1,318.1,735.2z M573.2,308.2c-1.6-3.4-3-5.9-4.1-8.4
	c-7.5-18.1-15.2-36-22.3-54.3c-2.7-7.1,1.3-13.8,8.2-16.3c6.7-2.5,13.6,0.5,16.7,7.5c1.1,2.4,1.4,5.1,2.5,7.4
	c9.4,19.8,18.5,39.7,28.5,59.2c4.2,8.3,15.6,7.8,20.8-0.1c12.8-19.6,22.6-40.6,29.5-63c3-9.7,9.7-13.7,17.5-11.2
	c8,2.6,11.4,9.7,8.1,19.1c-4.7,13.3-9.9,26.4-15.4,39.4c-2.9,6.9-6.6,13.3-10.5,21c4.3-0.5,7.4-0.7,10.4-1.3
	c16.3-3.2,28.2-13.1,38.4-25.5c17.4-21.3,26-46.3,29.7-73.2c1.4-10.1,1.8-20.3,2.9-32.7c-5.8,4.3-9.5,6.7-12.9,9.5
	c-26,21.7-58,21.6-83.6-0.4c-16.3-14-33.8-13.9-50.1,0.2c-25,21.7-57.3,21.8-83,0.5c-3.5-2.9-7.4-5.4-11.1-8.1
	c-0.9,0.4-1.8,0.7-2.7,1.1c2.1,15.4,3.4,30.9,6.6,46c5.7,26.6,17.2,50.4,38,68.8C545.9,302.8,557.9,308.2,573.2,308.2z M391.9,670.9
	c-20,0-39.6,2.6-57.9,11.4c-6.7,3.2-15.2,6.6-15.4,15.1c-0.2,8.7,8.2,12.5,15,15.3c38.7,16.2,77.7,16.2,116.4,0.1
	c6.9-2.9,15.2-6.7,15.1-15.3c-0.1-8.5-8.6-11.9-15.3-15.2C431.5,673.5,411.9,670.9,391.9,670.9z M271.7,416.1
	c-22.9-0.1-43.8,3.8-58.6,11.5c-6.7,3.4-15.2,6.7-15.1,15.3c0.1,8.5,8.4,12.3,15.3,15.2c38.5,16,77.2,15.9,115.7,0.1
	c6.9-2.8,15.2-6.6,15.4-15c0.2-9-8.6-12.4-15.6-15.7C310.8,418.7,291.4,416.1,271.7,416.1z M217.1,858.4
	c22.7,0.1,42.9-3.7,57.9-11.2c6.9-3.5,15.8-6.7,15.7-15.7c-0.1-8.5-8.5-12.3-15.4-15.1c-38.5-15.9-77.3-15.9-115.8,0
	c-6.9,2.8-15.3,6.6-15.4,15.1c-0.1,8.9,8.7,12.3,15.7,15.6C178,855.8,197.4,858.3,217.1,858.4z M351.4,281.7
	c22.9,0.1,44.1-4,58.7-11.7c6.4-3.4,14.5-6.4,14.7-14.8c0.2-8.6-8.1-11.3-14.3-15.1c-0.7-0.4-1.4-0.8-2.1-1.1
	c-38-14.9-76-15-113.9,0.3c-7.1,2.9-16,6.5-16.1,15.5c-0.1,9.4,9.2,12.6,16.4,16C312.7,279.3,331.8,281.7,351.4,281.7z M291.3,869.4
	c-49.7,21.6-98.5,21.7-147.6,0c0,7.5,0.7,14.1-0.1,20.6c-1.6,12,4.6,18.6,14.4,23.3c3.8,1.8,7.6,3.5,11.5,4.8
	c24.8,8.3,50.3,10,75.8,4.9c12.6-2.5,24.9-7.5,36.6-13c4.3-2,8.3-8.3,9.1-13.2C292.4,888.1,291.3,879.1,291.3,869.4z M714.7,307.2
	c6,0.5,10.3,1.3,14.7,1.2c19.2-0.2,36.4-5.6,48-21.9c13.5-19.1-0.7-50.4-23.6-52.3C747.3,261.2,734.5,285.2,714.7,307.2z"/>
<path d="M599.1,629.9c0-17.4,0-34.9,0-52.8c-17.1-1.2-31.4-7.7-42-21.4c-8-10.4-11.6-22.2-11.1-35.2c1.2-27.7,22.2-48.1,53.5-51.2
	c0-3.6-0.1-7.4,0-11.2c0.3-9.4,5.3-15.1,13.4-15.2c8.2-0.1,13.1,5.4,13.4,15c0.1,3.6,0,7.2,0,11c5,0.9,9.4,1.4,13.6,2.5
	c22.6,5.7,39,25.9,39.8,48.8c0.3,9.7-4,15.6-12,16.1c-8.1,0.6-13.4-4.5-14.6-14c-2.1-16.5-12.1-26.1-26.5-25.1c0,17.2,0,34.4,0,52.3
	c18.1,1.4,33.3,8.3,43.8,23.6c7.5,10.8,10.2,22.7,9.2,35.7c-2,26.1-21.8,44.6-53.4,48.8c0,4.1,0.2,8.4,0,12.7
	c-0.4,8.1-5.2,13.1-12.5,13.4c-7.6,0.4-13.4-4.7-14.1-12.7c-0.4-4.4-0.1-8.8-0.1-13.2c-5.7-1.1-10.6-1.6-15.3-2.9
	c-20.6-5.9-35.9-24.5-38.1-46.3c-1.1-10.4,3.3-17.2,11.6-18.1c8.7-0.9,13.7,4,15,14.9C574.6,620.1,584.8,629.7,599.1,629.9z
	 M626.8,629.7c14.9,0.5,26.4-11.1,26.3-26.2c-0.1-15-11.6-26.4-26.3-26C626.8,595,626.8,612.4,626.8,629.7z M599.2,496.8
	c-15.7,0.9-26.8,12.7-26.4,27.1c0.4,14.2,11.8,25.5,26.4,25.5C599.2,532.1,599.2,514.7,599.2,496.8z"/>
<path d="M744.5,818.6c-15.2,0.2-21.8-5-21.9-13.6c-0.1-8.1,6.1-13.7,16.6-14c19.8-0.6,38.8-4.5,56.6-13.6
	c28.6-14.7,40.4-40.1,44-70.5c0.4-3.1,0-6.3,0.5-9.4c1.1-8.3,7.4-14.1,14.5-13.7c7.7,0.5,13.3,6.9,13,15.8
	c-0.7,20.6-5.6,40.2-15.2,58.5c-16.7,32-45,47.7-78.4,55.7C763,816.5,751.5,817.5,744.5,818.6z"/>
</svg>
