<svg xmlns="http://www.w3.org/2000/svg" width="168.644" height="131.754" viewBox="0 0 168.644 131.754">
  <g id="ceo" transform="translate(-43.15 -143.16)">
    <path id="Trazado_95" data-name="Trazado 95" d="M195.184,247.819a15.783,15.783,0,0,0-7.313-28.037,15.817,15.817,0,0,0-15.606-13.38h-31.62a10.529,10.529,0,0,1-10.164-7.9h20.7a2.635,2.635,0,0,0,2.636-2.636,26.368,26.368,0,0,0-16.608-24.46,15.81,15.81,0,1,0-19.486,0,26.374,26.374,0,0,0-16.608,24.46,2.635,2.635,0,0,0,2.636,2.636h20.7a10.531,10.531,0,0,1-10.164,7.9H82.677a15.828,15.828,0,0,0-15.606,13.38,15.783,15.783,0,0,0-7.313,28.037,26.374,26.374,0,0,0-16.608,24.46,2.635,2.635,0,0,0,2.636,2.636H93.217a2.635,2.635,0,0,0,2.636-2.636,26.369,26.369,0,0,0-16.608-24.46,15.786,15.786,0,0,0-6.826-27.958,10.545,10.545,0,0,1,10.257-8.188H114.3a15.717,15.717,0,0,0,10.541-4.058v12.2a15.782,15.782,0,0,0-7.109,28,26.374,26.374,0,0,0-16.608,24.46,2.635,2.635,0,0,0,2.636,2.636h47.432a2.635,2.635,0,0,0,2.636-2.636,26.369,26.369,0,0,0-16.608-24.46,15.782,15.782,0,0,0-7.109-28v-12.2a15.717,15.717,0,0,0,10.541,4.058h31.62a10.549,10.549,0,0,1,10.257,8.188,15.786,15.786,0,0,0-6.826,27.958,26.374,26.374,0,0,0-16.608,24.46,2.635,2.635,0,0,0,2.636,2.636h47.432a2.635,2.635,0,0,0,2.636-2.636,26.369,26.369,0,0,0-16.608-24.46h0ZM90.415,269.643H48.582a21.08,21.08,0,0,1,41.83,0h0ZM80.039,235.389A10.541,10.541,0,1,1,69.5,224.849,10.554,10.554,0,0,1,80.039,235.389Zm36.891-76.416a10.541,10.541,0,1,1,10.541,10.541,10.554,10.554,0,0,1-10.541-10.541Zm10.541,15.81a21.11,21.11,0,0,1,20.915,18.446H106.554a21.116,21.116,0,0,1,20.915-18.446h0Zm20.915,94.861H106.554a21.08,21.08,0,0,1,41.83,0h0ZM138.01,235.391a10.541,10.541,0,1,1-10.541-10.541A10.554,10.554,0,0,1,138.01,235.391Zm36.891,0a10.541,10.541,0,1,1,10.541,10.541A10.554,10.554,0,0,1,174.9,235.391Zm-10.376,34.254a21.08,21.08,0,0,1,41.83,0Z" transform="translate(0 0)" fill="white"/>
  </g>
</svg>
