<?xml version="1.0" encoding="utf-8"?>
<!-- Generator: Adobe Illustrator 27.4.1, SVG Export Plug-In . SVG Version: 6.00 Build 0)  -->
<svg version="1.1" id="Capa_1" xmlns="http://www.w3.org/2000/svg" xmlns:xlink="http://www.w3.org/1999/xlink" x="0px" y="0px"
	 viewBox="0 0 1080 1080" style="enable-background:new 0 0 1080 1080;" xml:space="preserve">
<style type="text/css">
	.st0{fill:#666666;}
</style>
<path d="M927.7,910c-1.1,0.1-2.3-0.3-2.9,1.3c-5.8,16.7-17.9,23.5-35.1,23.5c-69.4-0.2-138.9-0.2-208.3-0.1
	c-15.2,0-32.6-14.9-32.6-32.6c0.1-115.2,0-230.4,0-345.5c0-9,0.9-17.7,6.2-25.8c5-7.6,12.2-11.3,20.1-12.6
	c6.2-1.1,12.7-1.9,19.2-1.9c65.1,0.2,130.2,0.1,195.3,0.2c13.8,0,25.4,4.9,32.8,17.3c2.2,3.7,3.6,7.8,5.3,11.7
	C927.7,666.9,927.7,788.4,927.7,910z M672,725.5c0,56.9,0,113.8,0,170.6c0,12.1,3.2,15.3,15.3,15.3c67,0,134.1,0,201.1,0
	c11.4,0,16-4.6,16-16.1c0-113.3,0-226.5,0-339.8c0-11.4-4.6-16-16.1-16c-66.8,0-133.6,0.2-200.4-0.2c-13.4-0.1-16.2,6.2-16.1,16.3
	C672.1,612.2,672,668.9,672,725.5z"/>
<path d="M321.8,190.8c8.6,4.8,18.7,4.8,27.7,8.5c18.4,7.7,33.8,18.7,47.5,33.4c16.8,18.1,24.7,39.8,29.2,63
	c4.1,21.1-0.1,41.8-7.5,61.7c-5.8,15.6-15.4,28.5-26.9,40.5c-15.3,16.1-33.4,26.5-54.5,32.6c-20.8,6.1-41.9,6.6-62.5,0.8
	c-21.6-6-41.1-16.7-57-33.1c-17.7-18.3-28.6-39.9-32.5-65.1c-5.7-37.4,3.2-70.6,27.7-99.7c18.4-21.8,41.3-35,69.3-40
	c2.4-0.4,5.7-0.1,7.5-2.7C300.5,190.8,311.2,190.8,321.8,190.8z M207.1,313c-1.9,51.2,43.8,102.9,104,98.8
	c28-1.9,51.6-13.4,69.6-34.1C402.1,353,408,323,402,291.3c-3-15.7-10.3-30.1-21.2-42.4c-20.2-22.8-45.7-34.4-75.6-34.6
	C251.6,213.8,205.8,257.7,207.1,313z"/>
<path d="M927.7,504.6c-7.3-2.2-12.8-8.5-21-9.1c-3.1-0.2-2.2-4.3-2.2-6.9c0-26.4,0-52.8,0-79.1c0-22.8,0-45.5,0-68.3
	c0-10.6-4.8-15.5-15.6-15.5c-51.1,0-102.1-0.1-153.2,0.1c-6,0-8.4-0.8-8.2-7.7c0.6-15.7,0.2-15.7,15.9-15.7c46,0,92,0.8,138-0.3
	c22.5-0.5,38.2,6.6,46.3,28.1C927.7,388.4,927.7,446.5,927.7,504.6z"/>
<path d="M469.7,484.2c31.1,1.1,60,9.3,84.4,28.8c8.5,6.8,16.4,14.7,23.8,23.5c15,17.8,25,37.2,30.5,59.3c3.3,13.2,5.1,26.7,3.8,40.3
	c-2,21.4-5.4,42.7-17.4,61.2c-4.8,7.5-7.7,16.1-14,22.7c-6.6,6.8-12.4,14.3-20,20.4c-7.6,6-15.6,11.4-23.9,16.4
	c-17.1,10.3-35.8,14.2-55.3,16.9c-22.4,3.1-43.5-0.7-64.4-8.3c-14.3-5.2-27.2-12.6-38.9-22.1c-2.9-2.4-5.4-2.8-8.1-0.1
	c-4.8,4.8-9.5,9.7-14.4,14.3c-2.4,2.3-1.9,3.6,0.2,5.8c10,9.9,10.1,23.3,0.3,33c-34.7,34.7-69.7,69.3-104.1,104.3
	c-12.4,12.6-26.7,12.9-37.6,0.3c-6.5-7.5-13.8-14.2-21-21.1c-11.9-11.4-10.3-23.8-0.1-34.1c35.2-35.3,70.6-70.4,105.7-105.9
	c7-7.1,23.6-8.3,31.2-0.8c3.9,3.9,7.2,4.7,10.9-0.3c1.8-2.5,4.4-4.5,6.6-6.7c9.3-9.3,9.1-9.1,1.5-19.2
	c-13.1-17.5-22.1-36.8-24.8-58.8c-1-7.9-2.5-16.1-2.4-23.8c0.3-16.8,2.3-33.4,8.2-49.6c11.9-33,32.6-58.3,62.7-76
	c18.3-10.8,38-17.5,59.5-19.2C458.2,485,463.9,484.5,469.7,484.2z M466.9,750.2c40,1,72.3-18.3,93.7-43.2
	c24.5-28.6,32-62.5,27.9-98.5c-2.3-19.9-10.7-40.1-23.6-55.1c-27.8-32.3-63.4-49.2-107.8-46.1c-53.4,3.7-119.5,51.6-110.5,137
	C351.9,693.9,398.3,752.8,466.9,750.2z M340.8,779.9c-7.1-7.1-14-13.6-20.5-20.4c-3.1-3.2-5.1-4.1-8.4-0.2
	c-4.9,5.6-10.5,10.7-15.8,16c-27.2,27.2-54.3,54.5-81.7,81.5c-4.9,4.8-4.9,7.8,0.2,12.1c5.1,4.4,9.9,9.3,14.4,14.3
	c3.1,3.4,5,3.7,8.5,0.2C271.7,848.9,306.1,814.5,340.8,779.9z"/>
<path d="M624.5,565.4c-1.9-4.1-1.4-7-1.4-9.7c0-101.5,0-202.9,0-304.4c0-1.9,0.1-3.9,0-5.8c-0.3-8.1,3.6-12.6,11.7-12.6
	c19.1-0.2,38.3-0.2,57.4,0c6.9,0.1,11,3.8,11.9,10.8c0.3,2.6,0.4,5.3,0.4,7.9c0,78-0.1,155.9,0.2,233.9c0,6.7-2,7.8-8,7.6
	c-15.4-0.4-15.4-0.1-15.4-15.4c0-71.4-0.1-142.9,0.1-214.3c0-5.8-1-8.2-7.3-7.6c-7.2,0.6-14.5,0.5-21.8,0c-4.9-0.3-6.1,1.4-6,6.1
	c0.2,20.6,0.1,41.2,0.1,61.7c0,58.6,0,117.2,0,175.8c0,3.5,0.3,6.9-3,9.8c-13,11.9-19,26.8-17.9,44.4c0.2,2.9,0,5.8,0,8.7
	C625.4,563,625.1,563.4,624.5,565.4z"/>
<path d="M183.8,392.8c4.9,6.2,8.4,12.4,13.5,16.7c7.9,6.7,10.1,14.2,10,24.4c-0.4,95.1-0.2,190.2-0.2,285.2
	c0,9.8,3.3,13.2,13.3,13.3c17.1,0.1,34.3,0,53,0c-8,8-15.1,15-22.2,22c-0.5,0.5-1.2,1.1-1.7,1.1c-13.6-0.5-27.4,1.9-40.9-1.2
	c-14.6-3.3-24.9-17.9-24.9-32.8c0.2-108.4,0.1-216.8,0.1-325.2C183.8,395.6,183.8,394.6,183.8,392.8z"/>
<path d="M599.8,440c0,25.2,0,50.3-0.1,75.5c0,1.7,1.3,4.3-1.2,5c-2.2,0.7-2.7-1.9-3.9-3.3c-3.8-4.3-7.5-9.2-12.2-12.2
	c-4.9-3.1-6-6.6-5.9-11.8c0.1-38.2,0-76.4,0.2-114.7c0-4.9-1-6.8-6.3-6.4c-7.5,0.5-15,0.5-22.5,0c-5.2-0.3-6.4,1.4-6.4,6.4
	c0.2,30.2,0.1,60.5,0.1,90.7c0,8.5,0,8.4-7.7,4.3c-2.2-1.2-4.7-2.6-7.1-2.8c-8.9-0.6-8.6-6.4-8.6-13c0.2-32.7,0-65.3-0.1-98
	c0-5.6,4.1-10.6,10-10.7c20.1-0.3,40.2-0.4,60.2,0c6.9,0.1,10.7,4.8,10.9,11.7c0.3,10.1,0.3,20.3,0.3,30.5
	C599.8,407.6,599.8,423.8,599.8,440z"/>
<path d="M427.1,232.8c19.4,0,37.8-0.2,56.2,0.1c6.5,0.1,10.5,3.9,11.4,10.5c0.3,2.4,0.5,4.8,0.5,7.2c0,68.3-0.2,136.5,0.3,204.8
	c0,7.7-3.3,7.6-8.5,7c-1.6-0.2-3.1-1.1-4.7-1.4c-10.3-1.5-10.3-1.5-10.3-11.7c0-62.2-0.1-124.4,0.1-186.6c0-5.1-0.7-7.4-6.5-6.9
	c-7.5,0.6-15,0.1-22.5,0.2c-2.4,0-4.4,0.2-5.8-2.8C434.3,246.7,430.9,240.4,427.1,232.8z"/>
<path d="M309.3,566.8c0-29-0.1-58.1-0.1-87.1c0-11.4,3.2-14.4,14.6-14.5c16.9,0,33.9,0.1,50.8-0.1c3.4,0,6.7,0.7,9.7,1.9
	c3.8,1.5,5.3,5,5.8,9.1c0.5,4.1-2.5,4.4-5,5.5c-7.6,3.2-13,11.3-23.9,6.6c-6.5-2.8-15.3-0.3-23-0.6c-4.4-0.2-6,1.2-5.8,5.7
	c0.3,9.9,0.1,19.8,0.1,29.8c0,2.1,0.5,4.2-1,6.2c-8.6,11.7-14.6,24.9-21.6,37.6l-0.3-0.2L309.3,566.8z"/>
<path d="M768.8,465.2c8.2,0,16.4,0,24.6,0c11.3,0,15.1,3.8,15.1,14.9c0,12.9,0,13.1-13.2,12.8c-3.7-0.1-9.3,3.2-10.8-3.9
	c-0.1-0.3-1.7-0.4-2.7-0.4c-9.2,0-18.4-0.1-27.5,0c-1.5,0-3.8-0.7-3.8,1.9c0,3.2-2.2,2.5-4,2.6c-1.7,0.1-3.4,0-5.1,0
	c-14.3,0-14.3,0-14.3-14c0-7.9,5.4-13.6,13.4-13.7C750,465.1,759.4,465.2,768.8,465.2z"/>
<path d="M559.4,325.8c-11.9,0-23.7-0.1-35.6,0.1c-4,0.1-5.4-0.9-5.5-5.2c-0.5-18.2-0.6-18.2,17.7-18.2c19.1,0,38.2,0.2,57.4-0.1
	c4.8-0.1,6.6,0.8,6.5,6.2c-0.2,17.2,0,17.2-17.3,17.2C574.9,325.8,567.1,325.8,559.4,325.8z"/>
<path d="M437.1,378.7c0,12.5,0,24.9,0,37.4c0,14-0.1,28,0,42c0,3.8-0.2,6.1-5.3,6.1c-4-0.1-8.2,1.5-12,3.2c-4.5,2-6,1.1-6-3.8
	c0.1-16.4,0.2-32.8,0-49.2c-0.1-4.7,2.7-7.3,5.1-10.6C424.9,395.6,430.8,387.4,437.1,378.7z"/>
<path d="M580.4,754.5c5.6-7.8,13.8-13.2,19.5-21c1.8-2.5,6.4-0.8,9.6-0.9c16-0.1,15.7,0,16.1,15.9c0.2,6-1.4,7.7-7.5,7.5
	c-12.5-0.5-25.1-0.2-37.6-0.2C580.6,755.3,580.6,754.9,580.4,754.5z"/>
<path d="M284.7,651.1c-3.9,0-7.7,0.1-11.6,0c-6.3-0.2-10.5-4.5-10.8-10.6c-0.3-6.5,3.8-11.9,10.1-12.3c7.7-0.5,15.4-0.1,23.1-0.3
	c2.7-0.1,3.2,1.1,3.1,3.5c-0.1,3.6,0.4,7,1.2,10.5c1.9,8.2,0.7,9.3-7.9,9.3C289.5,651.2,287.1,651.2,284.7,651.1
	C284.7,651.2,284.7,651.1,284.7,651.1z"/>
<path class="st0" d="M309.3,566.8l0.3-0.2l0.3,0.2c-0.1,0.8-0.2,1.6-0.3,2.4c0,0-0.4,0-0.4,0C309.2,568.4,309.3,567.6,309.3,566.8z"
	/>
<path class="st0" d="M580.4,754.5c0.1,0.4,0.2,0.8,0.2,1.2c-0.4,0-1.1,0-1.2-0.1C579,754.7,579.7,754.5,580.4,754.5z"/>
<path d="M695.2,789.2c0-25.4,0.4-50.9-0.2-76.3c-0.3-11.6,12.1-22.2,22.4-22.2c46.2-0.2,92.5-0.6,138.7,0.2
	c15.7,0.3,24.6,8.6,24.8,24.7c0.5,49.1,0.3,98.3,0.1,147.5c0,15.1-12.2,25.4-25.5,25.3c-45.8-0.4-91.5-0.1-137.3-0.2
	c-13.4,0-23.1-9.8-23.2-23.4C695.2,839.6,695.2,814.4,695.2,789.2z M748.2,713.8c-8.5,0-16.9,0.2-25.4-0.1c-3.6-0.1-4.5,1.1-4.4,4.5
	c0.2,8.7,0.2,17.4,0,26.1c-0.1,3.6,1.1,4.4,4.5,4.4c16.5-0.2,32.9-0.2,49.4,0c3.6,0,4.5-1.1,4.4-4.5c-0.2-8.7-0.2-17.4,0-26.1
	c0.1-3.6-1.1-4.5-4.5-4.4C764.2,714,756.2,713.8,748.2,713.8z M828.9,748.7c8.2,0,16.5-0.2,24.7,0.1c3.5,0.1,4.5-0.9,4.4-4.4
	c-0.2-8.7-0.2-17.4,0-26.1c0.1-3.5-1-4.5-4.4-4.4c-16.5,0.2-32.9,0.2-49.4,0c-3.5,0-4.5,0.9-4.4,4.4c0.2,8.7,0.2,17.4,0,26.1
	c-0.1,3.5,1,4.5,4.4,4.4C812.4,748.5,820.6,748.7,828.9,748.7z M747.6,771.9c-8.2,0-16.5,0.2-24.7-0.1c-3.4-0.1-4.6,0.8-4.5,4.4
	c0.3,8.7,0.2,17.4,0,26.1c-0.1,3.4,0.9,4.5,4.4,4.5c16.5-0.2,32.9-0.2,49.4,0c3.4,0,4.6-0.8,4.5-4.4c-0.3-8.7-0.2-17.4,0-26.1
	c0.1-3.4-0.8-4.6-4.4-4.5C764,772.1,755.8,771.9,747.6,771.9z M828.9,771.9c-8.2,0-16.5,0.2-24.7-0.1c-3.5-0.1-4.6,0.9-4.5,4.4
	c0.2,8.7,0.2,17.4,0,26.1c-0.1,3.5,0.9,4.5,4.4,4.5c16.5-0.2,32.9-0.2,49.4,0c3.5,0,4.6-0.9,4.5-4.4c-0.2-8.7-0.2-17.4,0-26.1
	c0.1-3.5-0.9-4.6-4.4-4.5C845.3,772.1,837.1,771.9,828.9,771.9z M746.8,864.9c8.5,0,16.9-0.2,25.4,0.1c3.5,0.1,4.5-1,4.4-4.5
	c-0.2-8.7-0.2-17.4,0-26.1c0.1-3.5-1-4.5-4.5-4.4c-16.5,0.2-32.9,0.2-49.4,0c-3.5,0-4.5,1-4.4,4.5c0.2,8.7,0.2,17.4,0,26.1
	c-0.1,3.5,1,4.5,4.5,4.4C730.8,864.8,738.8,864.9,746.8,864.9z M828.5,864.9c8.5,0,16.9-0.1,25.4,0.1c3.2,0.1,4.1-0.9,4.1-4.1
	c-0.2-9-0.2-17.9,0-26.9c0.1-3.2-0.9-4.1-4.1-4.1c-16.7,0.1-33.4,0.1-50.1,0c-3.2,0-4.1,0.9-4.1,4.1c0.2,9,0.2,17.9,0,26.9
	c-0.1,3.2,0.9,4.1,4.1,4.1C812.1,864.8,820.3,864.9,828.5,864.9z"/>
<path d="M788.9,667.3c-24,0-47.9,0-71.9,0c-11.4,0-21.7-10.3-21.8-21.8c-0.1-20.1,0.4-40.2-0.2-60.3c-0.3-12.3,11.6-22.1,21.5-22.2
	c46.7-0.4,93.5-0.7,140.2,0.1c15.8,0.3,23.5,8.9,24.2,24.6c0.8,18.4,0.5,36.8,0.1,55.2c-0.3,14.9-10.7,24.5-25.3,24.5
	C833.5,667.4,811.2,667.3,788.9,667.3C788.9,667.3,788.9,667.3,788.9,667.3z M788.9,586c-21.8,0-43.6,0.1-65.4-0.1
	c-4.1,0-5.3,1.1-5.2,5.2c0.2,16,0.2,32,0,47.9c-0.1,4.1,1.1,5.2,5.2,5.2c43.1-0.1,86.2-0.1,129.3,0c4.1,0,5.3-1.1,5.2-5.2
	c-0.2-15.7-0.3-31.5,0-47.2c0.1-4.7-1.2-6-5.9-5.9C831.1,586.1,810,586,788.9,586z"/>
<path d="M312.4,283.8c-3.1,0-6.3-0.2-9.4,0c-3.8,0.3-9.5-1.9-10.9,1c-1.9,3.9-0.7,9.4-0.7,14.2c0,3.2,2.6,2.2,4.3,2.2
	c7,0.1,14,0,21,0.1c11.7,0.2,24,4.8,26,20.3c1.5,11.5,3.2,23.2-4.2,33.7c-4.5,6.3-10.5,10.2-18.3,9.8c-5.1-0.2-5.8,1.7-5.8,6.1
	c0.1,5.3-0.3,10.9-5.2,14.6c-3.4,2.5-6.9,3.8-11.1,1.7c-4.1-2-6.3-4.9-6.7-9.3c-0.4-4.2,1.9-9.8-1.2-12.3c-2.5-2-7.9-0.4-11.9-0.8
	c-6.3-0.5-10.1-5.1-10.1-11.6c0.1-6.5,4-11.2,10.3-11.3c12.1-0.3,24.2-0.3,36.3-0.1c4.1,0.1,5.9-0.5,5.8-5.3
	c-0.2-12.2,0.1-12.2-11.9-12.2c-5.6,0-11.1,0-16.7,0c-14.2-0.1-23.7-9.5-23.8-23.5c0-5.6,0-11.1,0-16.7c0.1-13.9,9.5-23.6,23.6-23.6
	c4.4,0,6.3-0.9,5.5-5.5c-0.3-1.9-0.1-3.9,0-5.8c0.3-7.2,4.4-11.9,10.5-12c5.9-0.1,11.9,5.2,12.7,11.3c0.1,0.5,0,1,0,1.4
	c0.5,9.7,0.5,9.7,10.6,10.4c6.3,0.4,12.5,6.1,12.6,11.5c0.1,5.7-6.2,11.5-13,11.7C324.5,283.9,318.5,283.8,312.4,283.8z"/>
<path d="M390.6,570c0,16.9,0.2,33.8-0.1,50.7c-0.1,5,1.3,6.5,6.4,6.5c16.9-0.1,17,0.1,16.9-16.8c-0.1-18.4-0.3-36.8-0.5-55.1
	c-0.1-9.5,5.2-15.7,14.7-17.3c0.7-0.1,1.7,0.2,2.1-0.1c8.6-6,6.8,1,6.8,5.5c0,25.9,0.1,51.8-0.1,77.7c0,4.7,1.2,6.4,6.1,6.1
	c7.7-0.4,15.5-0.5,23.2,0c5.2,0.3,5.8-1.9,5.8-6.2c-0.2-28.1,0.1-56.2-0.2-84.2c-0.1-5.2,1.5-7,6.4-6c4,0.8,7.9,1.4,12,1.6
	c3.6,0.2,5.2,2.6,5.2,6.8c-0.3,26.6,0,53.2-0.3,79.9c-0.1,6,0.9,8.4,7.7,8.2c15.6-0.5,15.7-0.1,15.7-15.9c0-22.3,0-44.5,0-67.7
	c9,5,16.3,11.2,22.6,18.5c1.1,1.3,0.7,4.2,0.7,6.3c0,17.9,0.2,35.8-0.1,53.7c-0.1,4.8,1.4,6.6,6.2,5.9c1.9-0.3,3.9,0,5.8-0.1
	c15.7-0.5,12.2,2.3,12.2,14c0,6.6-2.9,9.4-10.8,9.3c-58.1-0.5-116.2-0.6-174.3,0c-8.7,0.1-10.6-3.8-10.8-10.2
	c-0.3-14.3,0.4-28.4,3.2-42.6c1.7-8.6,8.9-14.4,9.1-23.4c0-1.9,5.4-2.6,6.6-6.3C389.4,569.4,390,569.7,390.6,570z"/>
</svg>
