<?xml version="1.0" encoding="utf-8"?>
<!-- Generator: Adobe Illustrator 27.4.1, SVG Export Plug-In . SVG Version: 6.00 Build 0)  -->
<svg version="1.1" id="Capa_1" xmlns="http://www.w3.org/2000/svg" xmlns:xlink="http://www.w3.org/1999/xlink" x="0px" y="0px"
	 viewBox="0 0 1080 1080" style="enable-background:new 0 0 1080 1080;" xml:space="preserve">
<path d="M727.4,209.3c11.7,5.2,15.6,14.4,15.1,26.8c-0.7,17.5-0.1,35-0.2,52.5c0,14.7-8,22.7-22.8,22.8c-12.9,0.1-25.8,0-38.6,0
	c-2.6,0-4.9-0.1-4.9,3.7c0.1,15.7,0,31.5,0,47.9c2.2,0.2,4,0.4,5.8,0.4c9.2,0,18.5-0.1,27.7,0c19.7,0.3,32.8,13.5,32.8,33.2
	c0.1,33.6,0.6,67.3-0.3,100.9c-0.3,12.9,4.8,23.3,9,34.2c8.5-1.7,16.5-3.8,24.6-4.7c18.2-2,35.6,1.5,52,9.6
	c6.5,3.2,7.9,10.2,3.1,14.5c-4,3.6-8.1,2.2-12.3,0.2c-21.4-9.9-43.1-10.4-64.7-1.2c-35.2,15-54.3,53.2-45.6,90.5
	c8.4,35.8,42.2,61.9,78.5,60.6c38.9-1.4,70.5-29.4,76.1-67.6c3-21-1.8-40-14-57.3c-0.8-1.1-1.6-2.1-2.3-3.3c-2.6-4.3-2-9.1,1.6-11.9
	c3.7-2.9,9-2.3,12.3,1.8c9.1,11.5,15.3,24.4,18.3,38.7c12.5,59.6-29.9,114.1-90.7,116.7c-6.3,0.3-12.7-0.4-18.9-1.4
	c-6-0.9-11.9-2.7-18.6-4.3c0,7.6,0,15,0,22.5c0,16.4-7.7,24.1-23.9,24.1c-124,0-248,0-372,0c-16,0-23.7-7.6-23.7-23.6
	c0-17.3,0-34.6,0-51.9c0-15.5,7.9-23.4,23.5-23.4c74.2,0,148.4,0,222.6,0c37.3,0,74.6,0,111.9,0c2.3,0,4.6,0,7.2,0
	c-1.9-7.3-3.6-14.3-5.6-21.2c-0.2-0.9-2-1.6-3.1-1.8c-1.5-0.3-3.1-0.1-4.6-0.1c-122.4,0-244.9,0-367.3,0c-2.3,0-4.5,0-7.2,0
	c-0.1,2.4-0.3,4.2-0.3,6.1c0,40.4,0,80.7,0,121.1c0,12.6,5.3,17.9,17.8,17.9c143.2,0,286.4,0,429.6,0c13,0,18.2-5.2,18.3-18.1
	c0-5.2-0.1-10.4,0.1-15.6c0.2-5.1,3.6-8.5,8.2-8.7c4.4-0.2,8.7,3.2,8.8,8.2c0.1,9,0.5,18.2-0.9,27c-2.1,13.4-14.8,23.5-28.5,24.4
	c-2.3,0.1-4.6,0.1-6.9,0.1c-141.1,0-282.2-0.2-423.3,0.2c-19.9,0.1-33.9-6.1-40.4-25.6c0-49.6,0-99.2,0-148.8
	c0.6-0.9,1.4-1.8,1.8-2.8c15.1-36.5,30.2-73,45.2-109.6c1-2.4,1.2-5.2,1.2-7.8c0.1-36.5,0-73,0.1-109.6c0-15.8,9.6-28.6,24.4-31.5
	c6.7-1.3,13.8-0.9,20.7-0.7c4.4,0.1,6.9,3.2,7.2,7.6c0.3,4.6-1.8,8-6.4,8.9c-3.3,0.7-6.9,0.5-10.3,0.5c-13.4,0.1-18.2,4.8-18.2,17.9
	c0,32.9,0,65.7,0,98.6c0,2,0,4,0,5.9c123.5,0,246.1,0,369.3,0c0-2.3,0-4.4,0-6.5c0-32.1,0-64.2,0-96.3c0-15.2-4.4-19.7-19.4-19.7
	c-52.1,0-104.2,0-156.3,0c-2.3,0-4.7,0-6.9-0.5c-4.5-1.1-6.8-4.2-6.5-8.9c0.3-4.3,2.8-7.1,7.2-7.7c1.9-0.3,3.8-0.2,5.8-0.2
	c21.1,0,42.3,0,63.4,0c2,0,4.1,0,6.2,0c0-17.7,0-34.5,0-52c-2.4,0-4.4,0-6.5,0c-12.5,0-25,0.2-37.5-0.1
	c-13.5-0.2-21.4-8.4-21.4-21.8c-0.1-18.1,0.5-36.2-0.2-54.2c-0.5-12.4,3.7-21.2,15.2-26.1C621.2,209.3,674.3,209.3,727.4,209.3z
	 M311.9,620c126,0,251,0,376.6,0c0.9-16.5,5-31.9,13.4-46c8.4-14.1,19.8-25.3,33.6-33.9c-2.2-5.3-4.3-10-6-14.9
	c-1.1-3.2-2.8-4.3-6.3-4.3c-122,0.1-244.1,0.1-366.1,0c-3.5,0-5,1.3-6.2,4.4c-3.8,9.8-8,19.5-12,29.3C330,576,321.1,597.6,311.9,620
	z M539.7,742.2c61.9,0,123.8,0,185.7,0c7.2,0,7.4-0.2,7.4-7.5c0-7.1-0.4-14.3,0.1-21.3c0.5-6.7-0.7-11.8-7.2-15.2
	c-3-1.5-6.1-3.9-7.7-6.8c-7.9-13.5-20.1-13.8-33.9-13.8c-109.4,0.4-218.7,0.2-328.1,0.2c-8.1,0-8.1,0-8.1,7.9c0,16.1,0,32.3,0,48.4
	c0,8,0,8,7.9,8C417.1,742.2,478.4,742.2,539.7,742.2z M647.4,294.2c23.4,0,46.9-0.1,70.3,0.1c5.3,0,7.5-1.3,7.4-7.1
	c-0.4-17.9-0.3-35.7,0-53.6c0.1-5.2-1.4-7-6.9-7c-47.1,0.2-94.1,0.2-141.2,0c-5.6,0-6.8,2-6.7,7.1c0.2,17.7,0.1,35.4,0.1,53
	c0,7.5,0,7.6,7.8,7.6C601.3,294.2,624.4,294.2,647.4,294.2z M636.4,363.5c6,0,11.7-0.2,17.3,0.1c3.8,0.2,5-1.2,4.9-4.9
	c-0.2-14.4-0.1-28.8-0.1-43.1c0-1.3-0.4-2.5-0.6-3.6c-7.4,0-14.4,0-21.5,0C636.4,329.2,636.4,346,636.4,363.5z"/>
<path d="M813.1,601.5c0,5.9-3.2,9.9-8,9.9c-5.1,0.1-8.4-2.7-9-7.8c-0.7-5.6-2.8-10-8.7-11.5c-6.2-1.5-12.2,2.3-13.6,8.4
	c-1.4,6.2,3,12.3,9.6,13.4c2.6,0.4,5.4,0.3,8,1c11.4,2.8,19.9,12.1,21.5,23c1.7,12.3-3.3,23.5-14.1,29.1c-4.4,2.3-6.3,4.9-5.4,9.7
	c0.2,1.1,0.1,2.3,0,3.5c-0.4,5-3.7,8.7-8.3,8.6c-4.9-0.1-8.9-3-8.5-7.6c0.6-8.3-2.7-12.8-9.6-17c-7-4.2-10.1-11.9-10.5-20.2
	c-0.3-5.7,3.1-9.7,8-10.1c4.7-0.3,8.3,3,9.2,8.4c1.2,7.2,4.4,10.8,10.2,11.2c6.3,0.5,11.4-3.7,12-9.8c0.6-6.2-3.4-11.4-9.6-12.2
	c-2.3-0.3-4.6-0.3-6.8-0.8c-12.1-2.5-20.9-11.7-22.8-23.8c-1.8-11.6,4.2-23.8,15.2-29.2c3.6-1.8,4.6-3.8,4.4-7.4
	c-0.2-2.5-0.1-5.1,0.5-7.4c1.1-4.2,4.2-6.5,8.6-6.2c4.5,0.3,8.3,3,7.8,7.6c-0.8,8,2.3,12.5,9.2,16.6
	C809.6,585.2,812.8,593.1,813.1,601.5z"/>
<path d="M515.7,461.3c3.2,0,5.6-0.1,8,0c6.3,0.3,10,3.7,9.8,8.9c-0.2,5.1-3.7,8.2-9.8,8.3c-9.4,0.1-18.8,0-28.3,0
	c-30.8,0-61.5,0-92.3,0c-2.5,0-5.7,0.3-7.2-1c-2.3-2.1-5-5.7-4.6-8.2c0.4-2.8,3.7-6,6.5-7.4c2.9-1.4,6.8-0.7,10.6-0.9
	c0-40.4,0-80.6,0-121.4c-2.3,0-4.3,0-6.4,0c-17.7,0-35.4,0-53.1,0c-7.5,0-10.6-3-10.7-10.4c-0.1-11.5-0.2-23.1,0.1-34.6
	c0.5-23.4,18.9-42.3,42.2-42.6c30.9-0.4,61.9-0.4,92.8,0c22.2,0.3,40,17.7,41.9,39.8c0.3,3.2,0.3,6.5,0.3,9.8
	c0,50.6,0,101.1,0,151.7C515.7,455.7,515.7,458.2,515.7,461.3z M498.4,460.9c0-10.8,0-21.4,0-31.9c0-43.6,0.1-87.3,0-130.9
	c0-18.4-10.7-28.9-29.1-29c-15.6-0.1-31.1,0-46.7,0c-1.4,0-2.8,0.3-5,0.5c8.1,11,8.8,22.9,8.7,35.2c-0.2,49.8-0.1,99.6-0.1,149.4
	c0,2.2,0,4.5,0,6.8C450.6,460.9,474.2,460.9,498.4,460.9z M409,322c0-2.7,0-4.8,0-6.9c0-7.3,0.3-14.6-0.2-21.9
	c-0.9-12.8-11.6-23.2-23.9-24.1c-13.7-1-26.2,7-28.2,20.1c-1.6,10.6-0.3,21.6-0.3,32.7C373.8,322,391,322,409,322z"/>
<path d="M627,478.6c-17.1,0-34.2,0.1-51.3,0c-14.6-0.1-22.4-7.9-22.5-22.4c0-9.8-0.1-19.6,0-29.4c0.1-12.5,8.4-21,21-21.1
	c35.2-0.1,70.4-0.1,105.5,0c12.6,0,20.9,8.6,21.1,21.1c0.1,10,0.1,20,0,30c-0.1,13.7-8.1,21.8-22,21.8
	C661.6,478.7,644.3,478.6,627,478.6z M626.9,422.9c-16.9,0-33.8,0.1-50.7-0.1c-4.1,0-5.9,1.2-5.8,5.6c0.2,9,0.2,18.1,0,27.1
	c-0.1,4.3,1.4,5.8,5.7,5.8c34-0.1,68-0.1,102,0c4.3,0,5.7-1.7,5.6-5.9c-0.2-8.6-0.3-17.3,0-25.9c0.2-5-1.5-6.8-6.6-6.7
	C660.3,423.1,643.6,422.9,626.9,422.9z"/>
<path d="M432.6,597c-2.9,0-5.8,0.1-8.6,0c-4.9-0.3-7.8-3-8.2-7.9c-0.4-5,2.3-8.5,7-8.9c6.8-0.6,13.8-0.6,20.6,0.1
	c4.7,0.5,7.4,4.2,6.9,9.1c-0.5,4.5-3.3,7.3-7.9,7.7C439.1,597.1,435.9,596.9,432.6,597z"/>
<path d="M647.5,597c-2.9,0-5.8,0.1-8.6,0c-4.9-0.2-7.9-2.7-8.5-7.6c-0.6-4.7,2.4-9,7.3-9.3c6.7-0.5,13.5-0.5,20.1,0.1
	c4.7,0.4,7.5,4,7.1,8.9c-0.4,4.8-3.3,7.7-8.2,8C653.6,597.1,650.5,596.9,647.5,597z"/>
<path d="M504.5,596.9c-3.1,0-6.2,0.2-9.2,0c-4.9-0.4-7.8-3.1-8.1-8c-0.3-5,2.5-8.4,7.2-8.8c6.7-0.6,13.4-0.6,20.1,0
	c4.7,0.4,7.6,3.9,7.3,8.8c-0.3,4.8-3.2,7.7-8.1,8.1C510.7,597.1,507.6,596.9,504.5,596.9z"/>
<path d="M575.8,597c-2.9,0-5.8,0.1-8.6,0c-4.9-0.2-7.9-2.8-8.4-7.8c-0.5-4.7,2.5-8.9,7.4-9.2c6.5-0.5,13.1-0.4,19.5,0
	c4.9,0.3,8.2,4.7,7.6,9.1c-0.6,4.8-3.4,7.6-8.4,7.8C582,597.1,578.9,597,575.8,597z"/>
<path d="M647.5,541.5c2.9,0,5.8-0.1,8.6,0c5.3,0.3,8.9,3.9,8.9,8.7c0,4.6-3.5,8.3-8.4,8.5c-5.9,0.3-11.9,0.3-17.8,0
	c-5.3-0.2-8.6-4-8.5-8.9c0.2-4.7,3.5-7.9,8.6-8.2C641.8,541.4,644.6,541.5,647.5,541.5z"/>
<path d="M575.8,558.7c-3.1,0-6.2,0.2-9.2-0.1c-4.9-0.5-8.1-4.2-7.8-8.9c0.3-5,3.2-7.8,8-8.1c6.1-0.3,12.3-0.3,18.4,0
	c4.9,0.2,8.5,4.1,8.2,8.6c-0.3,4.9-3,7.9-7.9,8.4C582.4,559,579.1,558.7,575.8,558.7z"/>
<path d="M504.5,558.8c-3.1,0-6.2,0.2-9.2,0c-5-0.4-8.2-4-8.1-8.7c0.1-4.7,3.3-8.2,8.4-8.4c5.9-0.2,11.9-0.2,17.8,0
	c5,0.2,8.4,3.9,8.5,8.4c0.1,4.6-3.3,8.3-8.2,8.7C510.7,559,507.6,558.8,504.5,558.8z"/>
<path d="M433,558.8c-3.1,0-6.2,0.2-9.2,0c-5-0.4-8.2-4-8.1-8.7c0-4.7,3.3-8.2,8.4-8.4c5.9-0.2,11.9-0.2,17.8,0
	c5,0.2,8.4,3.8,8.5,8.4c0.1,4.5-3.3,8.3-8.2,8.8C439.2,559,436.1,558.8,433,558.8z"/>
<path d="M540.5,701.7c2.9,0,5.8-0.2,8.6,0c4.7,0.3,7.5,3,7.9,7.6c0.4,4.6-1.8,8.4-6.3,8.9c-6.8,0.7-13.8,0.7-20.6,0
	c-4.6-0.4-7-4.2-6.6-8.8c0.4-4.5,3.1-7.4,7.8-7.8C534.3,701.5,537.4,701.7,540.5,701.7z"/>
<path d="M647.8,251.8c17.5,0,34.9-0.1,52.4,0c6.7,0,10.4,3.4,10.1,9c-0.2,5.2-3.9,8.2-10.4,8.2c-15.2,0.1-30.3,0-45.5,0
	c-19.6,0-39.1,0-58.7,0c-7,0-11-3.6-10.7-9.1c0.3-5,3.8-8.1,9.9-8.1C612.5,251.7,630.2,251.8,647.8,251.8z"/>
<path d="M460.5,421.8c-3.6,0-7.3,0.2-10.9,0c-5.2-0.4-8.3-3.6-8.3-8.4c0-4.7,3-8.4,8.2-8.6c7.6-0.3,15.3-0.3,22.9,0.1
	c4.8,0.3,7.6,3.6,7.9,8.4c0.3,4.5-3.3,8.2-8.3,8.5C468.1,422,464.3,421.8,460.5,421.8C460.5,421.8,460.5,421.8,460.5,421.8z"/>
<path d="M461.2,363.6c3.6,0,7.3-0.2,10.9,0c5,0.3,7.8,3.4,8,8.1c0.2,4.8-2.6,8.4-7.4,8.7c-8,0.5-16.1,0.5-24.1,0
	c-4.8-0.3-7.6-3.6-7.4-8.6c0.2-4.9,3-7.8,7.9-8.2C453.1,363.4,457.2,363.6,461.2,363.6z"/>
<path d="M461.3,322.3c3.4,0,6.9-0.1,10.3,0c5,0.3,8.6,3.8,8.5,8.3c-0.1,4.8-2.8,8.3-7.6,8.6c-7.8,0.5-15.7,0.4-23.5,0.1
	c-5-0.2-8-4.2-7.8-8.9c0.2-4.7,3.5-7.8,8.6-8.1c0.4,0,0.8,0,1.1,0C454.4,322.3,457.9,322.3,461.3,322.3
	C461.3,322.3,461.3,322.3,461.3,322.3z"/>
</svg>
