<?xml version="1.0" encoding="utf-8"?>
<!-- Generator: Adobe Illustrator 27.4.1, SVG Export Plug-In . SVG Version: 6.00 Build 0)  -->
<svg version="1.1" id="Capa_1" xmlns="http://www.w3.org/2000/svg" xmlns:xlink="http://www.w3.org/1999/xlink" x="0px" y="0px"
	 viewBox="0 0 1080 1080" style="enable-background:new 0 0 1080 1080;" xml:space="preserve">
<path d="M733.4,89.2c11.5,4.1,18.3,12.6,23.6,23.4c14.5,29.8,29.8,59.3,44.6,88.9c11.8,23.5,1.6,44.6-24,49.9
	c-33.6,6.9-67.2,13.9-100.9,20.7c-25,5.1-43-10.6-40.7-35.4c1.2-12.1,9.2-21.9,21.1-25.5c3.4-1,6.8-1.6,10.7-4.3
	c-12.7-3.3-25.3-7.4-38.1-9.7c-126.2-22.7-237.2,8.4-328.3,99c-78.4,78-112.9,174.2-104.5,284.9c4.4,57.8,22.5,111.3,52.9,160.7
	c11.7,19,1.3,47.9-19.7,55.4c-11,3.9-20.3,0-28.2-11.9c-24.1-36.5-42-75.9-54-118c-62.7-219.6,60.6-450.9,278.2-520.6
	c90.1-28.9,180.3-27.7,270,2.6c1.9,0.7,3.9,1.3,5.8,1.9c0.5,0.1,1.1,0,0.1,0c-2.6-12-7.6-24.2-7.4-36.3
	c0.2-14.1,12.8-20.5,24.7-25.7C724,89.2,728.7,89.2,733.4,89.2z M220.4,780.1c15.7-9.4,18.1-19,10.4-31.9
	c-30.2-50.4-48.2-104.9-53.3-163.5c-7.8-88.4,12.8-169.9,61.8-243.6c62.2-93.6,150-148.9,260.8-166.7c70.9-11.4,140-2.1,206.1,26.2
	c4,1.7,8.5,7,9.1,11c0.8,6.6-5.5,8.7-11.3,9.8c-11.8,2.3-23.6,4.7-35.4,7.2c-10.6,2.2-14.3,6.8-12.7,15.3c1.6,7.8,7.1,10.8,17.1,8.8
	c33.9-6.9,67.9-13.9,101.8-20.9c11.3-2.4,15-9.9,9.9-20.2c-15.6-31.3-31.3-62.4-47.1-93.6c-4.5-8.8-9.7-10.9-16.8-7.6
	c-7.5,3.6-9.2,9.5-4.8,18.5c5.6,11.3,11.3,22.5,17,33.8c2.6,5.1,5.3,10.3,0.6,15.5c-4.7,5.2-10.1,3.1-15.4,0.8
	c-62.2-26.7-127-37.7-194.5-31.8c-94,8.2-176.3,43.9-244.7,108.8c-126.5,119.9-162.5,301.4-92,460.7
	C196.5,738.2,208.9,758.6,220.4,780.1z"/>
<path d="M725.3,453c0,23.8,0.2,47.6-0.1,71.4c-0.1,6.2,1.6,8.5,8.1,9.4c58.3,7.7,103.3,59.3,104,118.7
	c0.7,59.5-43,111.7-101.1,121.3c-25.7,4.2-50.2,0.7-73.8-10.3c-3.1-1.5-7.5-2.1-10.8-1.2c-62.8,16-125.5,15.7-188.3,0.3
	c-4.2-1-9.7,0.3-13.9,2.2c-81.4,36.9-174.1-24-172.3-113.4c1.2-59.1,45.9-109.7,104.2-117.6c5.9-0.8,7.9-2.8,7.8-8.7
	c-0.4-47.9-0.6-95.8-0.6-143.6c0-15.9,7-29.3,20-37.3c15.6-9.6,32-19.3,49.4-24.3c71-20.1,142.2-19.8,212.3,4.4
	c13.3,4.6,25.8,12.7,37.3,21.1c13.5,9.9,19.1,24.2,18.3,41.6C724.6,408.9,725.4,430.9,725.3,453C725.4,453,725.3,453,725.3,453z
	 M547.4,431.6c45.6,0,81-3.4,114.4-16.5c13.1-5.1,25.6-13,36.6-21.9c10.4-8.3,10.1-20.4,0.1-29.1c-8.7-7.6-18.6-14.9-29.3-18.9
	c-70.8-26.3-142.4-26-214.2-4.2c-14.7,4.5-28.5,11.1-39.4,22.4c-9.6,10-10.2,21,0.2,30.1c8.2,7.2,17.8,13.7,27.8,18.1
	C479.8,427.5,518.2,431.5,547.4,431.6z M613.5,653.8c0,56.1,45.9,102.1,102,102.1c56.1,0,102.2-46.3,102-102.2
	c-0.2-57.3-46.1-101.5-105.2-101.4C659,552.3,613.6,599,613.5,653.8z M399.1,552.3c-57.5,0.4-103.3,46.1-102.5,102.2
	c0.9,56.6,46.6,101.6,102.9,101.3c55.9-0.3,101.4-46.7,101-103.1C500.3,597.4,454.4,552,399.1,552.3z M408.8,415.6
	c0,14.6-0.7,28.5,0.3,42.2c0.5,5.9,3,13.6,7.4,16.8c11.4,8.4,23.6,16.9,36.8,21.5c56,19.5,113.4,20.4,171.3,10
	c21.8-3.9,43.2-9.6,61.7-22.2c7.2-4.9,16.4-12.1,17.6-19.5c2.7-15.7,0.8-32.3,0.8-48.8C616.6,464,503.1,464.1,408.8,415.6z
	 M409,531.5c0.7,0.5,1.2,0.9,1.7,1.1c1.1,0.3,2.3,0.6,3.4,0.7c35.4,4.7,63.1,22.1,84.3,50.7c2.2,3,6.9,5.3,10.8,5.8
	c31.6,4.3,63.3,4.5,94.8,0c4.5-0.6,9.8-3.8,12.6-7.4c19.2-25,43.8-41.3,74.7-47.8c4.5-0.9,9.1-1.6,13.7-2.5c0-12.3,0-23.9,0-36.3
	c-45.6,29.6-96.2,35.9-148,35.9c-51.8,0-102.4-6.5-148-35.9C409,508.4,409,520,409,531.5z M478.5,745.9
	c53.3,11.1,104.3,11.4,157.1-0.1c-16.2-15.2-27.5-31.4-34.7-50.4c-0.7-1.8-4.3-3.5-6.5-3.5c-24.9-0.3-49.8-0.3-74.7,0
	c-2.2,0-5.8,1.8-6.4,3.6C506,714.5,494.8,730.7,478.5,745.9z M592.3,672.2c2.3-21.3,4.5-41.1,6.6-60.3c-27.6,0-56.5,0-83.6,0
	c2.1,19.5,4.2,39.4,6.4,60.3C545.1,672.2,569.5,672.2,592.3,672.2z"/>
<path d="M371.1,933.9c2.6,6.8,4.7,11.7,6.3,16.6c5.6,16.7-2.2,32.7-18.9,39.3c-16.1,6.3-32.7,0.2-39.8-15.8
	c-12.1-27.7-23.4-55.7-35-83.6c-2.6-6.2-5.2-12.4-7.7-18.7c-7.9-20.5,2.5-40.7,24-43.9c37.4-5.7,75-10.5,112.6-14.9
	c16.5-1.9,30.2,10.5,32.8,27.9c2.4,16.2-8.1,31.5-24.2,34.9c-5,1.1-10.2,1.6-15.3,2.4c-0.2,0.8-0.4,1.6-0.6,2.4
	c19,6.6,37.6,14.3,56.9,19.6c197.3,53.8,401.3-67.5,446.8-267.1c25.4-111.3,1.7-213.2-67.2-304.3c-13.4-17.7-12.3-35.3,3.7-50.9
	c12.9-12.5,27.3-12.1,38.8,1.8c32.8,39.4,57.6,83.6,74.4,132c70.6,202.9-21,427.7-214.6,521.3c-120,58-242.2,59.2-364.4,4.9
	C377.4,936.7,375.1,935.7,371.1,933.9z M938.6,564.8c-1.6,12.5-3.3,37.2-7.9,61.3C898,795,750.9,922.8,579.3,931.9
	c-74.3,4-144-12.1-209-48.5c-5.1-2.8-10.1-5.6-8.9-12.5c1.3-7.5,7.5-8.2,13.4-9c13.1-1.8,26.2-3.3,39.3-5.2
	c8.8-1.3,12.7-5.9,11.8-13.3c-1-8-5.9-11.6-15.2-10.4c-15.5,1.8-30.9,3.9-46.3,5.9c-19.5,2.5-39,4.9-58.5,7.7
	c-10.3,1.5-15.3,8-12,16.3c13.9,34.3,28,68.4,42.5,102.4c3.7,8.6,13.4,10.3,19.3,3.1c2.5-3.1,3.4-9.5,2.1-13.3
	c-4.3-12.8-10.5-24.9-14.9-37.6c-1.2-3.6-0.2-9.8,2.3-12.4c2-2.1,7.9-1.3,11.9-0.6c3.3,0.6,6.2,3.2,9.3,4.8
	c115.8,59.5,234.4,65.1,353.5,13.2c204-88.9,296.5-322.8,211.1-528c-15.2-36.6-35.5-70.2-60.7-100.7c-2.3-2.7-3.9-6.9-9-3.4
	c-9,6.3-11,17.1-4.4,25.5C911.1,385.4,937.5,464.6,938.6,564.8z"/>
<path d="M725.4,582.3c9.5,5.5,18.2,10.1,26.4,15.5c2.8,1.8,5.8,5.3,6,8.2c0.3,3.8-1,9.8-3.5,11.1c-3.1,1.6-8.8,0.4-12.4-1.6
	c-5.1-2.8-9.4-7.2-14-11c-0.9,0.5-1.9,0.9-2.8,1.4c0,12.1-0.3,24.2,0.3,36.3c0.1,1.7,3.8,3.7,6.3,4.7c19.8,8.3,30.5,26,26.3,44.5
	c-3.3,14.4-13.4,22.8-26.3,28.8c-2.7,1.3-6.1,4.7-6.3,7.4c-0.6,7.4-0.6,15.4-10.3,15.2c-9.5-0.2-10-8.2-9.8-15.6
	c0-1.1-0.2-2.3-0.1-1c-10.6-6.8-20.1-12.2-28.7-18.8c-5.3-4-7.6-10.4-1.6-16c5.8-5.3,10.9-2.8,15.9,2.5c3.5,3.6,8.1,6.2,13.8,10.3
	c0-15.2,0-28.2,0-41.4c-3-1.2-6.3-2.4-9.4-4c-14.4-7.3-23.8-18.5-23.4-35.3c0.4-17.5,10.7-28.8,26.3-35.1c5.5-2.2,8-4.5,7.4-10.6
	c-0.6-6.8,1.7-12.6,9.8-12.7c8.3-0.1,9.9,5.8,9.8,12.7C725.2,579.9,725.4,581.9,725.4,582.3z M725.8,666.2c0,12.1,0,22.9,0,34.4
	c8.2-3.1,13-8.2,13.3-16.3C739.4,675.7,734.2,670.4,725.8,666.2z M705.1,607c-8.9,4-13.9,9.5-13.4,18c0.5,7.9,5.5,13,13.4,16.2
	C705.1,629.6,705.1,618.9,705.1,607z"/>
<path d="M408.8,581.3c11.1,7.4,20.7,12.9,29.2,19.6c5.3,4.2,6.9,10.8,0.7,15.9c-5.6,4.7-10.5,2.1-15.3-2.7
	c-3.6-3.7-8.4-6.3-14.7-10.9c0,14.7-0.2,26.4,0.2,38.1c0,1.7,2.1,3.7,3.7,4.9c1.6,1.2,3.8,1.4,5.7,2.3c14.3,7.3,23.9,18.4,24,35.1
	c0.1,16.8-9.4,28.2-24.1,34.8c-6.6,2.9-10.6,5.6-9.7,13.7c0.7,6.4-3.3,11-10,10.8c-6.7-0.2-9.5-4.8-9.5-11.4c0-2.6-0.2-5.2-0.2-5.3
	c-10.7-6.9-20.2-12.3-28.9-18.9c-5.3-4.1-7.4-10.6-1.6-16c5.7-5.3,10.9-2.7,15.9,2.5c3.5,3.7,8.2,6.2,14.7,11
	c0-15.2,0.2-27.6-0.3-40c-0.1-1.6-4.1-3.4-6.6-4.4c-19.9-8.3-30.4-25.9-25.8-44.6c3.5-14.3,13.5-22.7,26.6-28.4
	c2.7-1.2,5.6-4.9,5.9-7.7c0.8-7,0.2-14.1,9.9-14.7c6.9-0.4,9.9,4.3,10.2,15.2C408.7,581.4,408.8,582.6,408.8,581.3z M388.6,606.7
	c-9,4.4-14.3,9.7-13.5,18.8c0.8,7.9,5.5,12.7,13.5,15.4C388.6,629.4,388.6,618.9,388.6,606.7z M409.2,666.3c0,11.9,0,22.7,0,34.5
	c7.9-3.6,13.1-8.6,13.3-16.5C422.7,676.1,417.7,670.4,409.2,666.3z"/>
</svg>
