<?xml version="1.0" encoding="utf-8"?>
<!-- Generator: Adobe Illustrator 27.4.1, SVG Export Plug-In . SVG Version: 6.00 Build 0)  -->
<svg version="1.1" id="Capa_1" xmlns="http://www.w3.org/2000/svg" xmlns:xlink="http://www.w3.org/1999/xlink" x="0px" y="0px"
	 viewBox="0 0 1080 1080" style="enable-background:new 0 0 1080 1080;" xml:space="preserve">
<path d="M998.2,761.1c0,5.7,0,11.4,0,17.1c-0.5,1-1.2,1.9-1.5,2.9c-5.6,19.8-18.3,32.2-38.4,37c-13.8,3.3-27.7,6-41.4,9.7
	c-23.3,6.4-43.2,2-59.4-17.2c-9.7,4.2-19.1,8.8-28.9,12.5c-5.5,2.1-6.7,4.8-6.2,10.7c3.1,34.2-16,59.2-49.8,66.5
	c-1.6,0.3-3.1,0.9-4.8,1.3c0.2,26-9.5,46.2-32.4,58.2c-22.7,11.9-44.8,8.4-65.6-5.9c-19.2,44.8-73.4,53-104.9,16.1
	c-3.8-4.5-7.2-9.2-10.8-13.9c-11,23.8-27.6,35.3-49.1,40.9c-6.3,0-12.5,0-18.8,0c-18-4-31.1-15.3-43.7-27.9
	c-54.3-54.3-109-108.2-163.6-162.3c-2.3-2.3-4.8-4.4-7.2-6.7c-17.6,27.7-34,34.6-65.2,27.6c-13-2.9-26-5.9-39-8.8
	c-32.5-7.4-48.3-32.5-40.8-65.1c20.4-89.2,40.6-178.5,61.5-267.7c2.3-9.8,8.2-19.2,14.2-27.5c3.6-4.9,5.7-9,5.7-15
	c-0.1-99.7,0-199.3-0.3-299c0-10.5,2.7-18.3,12.3-23c178.6,0,357.2,0,535.8,0c4.2,3.3,8.7,6.3,12.5,10.1
	c42.1,42,83.9,84.3,126.2,126.1c7.5,7.4,10.5,15.2,10.4,25.6c-0.4,52.1-0.1,104.2-0.2,156.3c0,4.4,0.2,7.9,5,10.5
	c13.9,7.5,21.4,19.8,24.9,35c14.9,65.4,29.8,130.8,44.8,196.2C985.5,708,991.9,734.5,998.2,761.1z M242.9,156.3
	c-0.3,1.2-0.7,2-0.7,2.7c0,93.2-0.1,186.3,0.2,279.5c0,2.1,3.3,5.4,5.7,6c17.1,4.3,34.3,7.9,51.4,12.1c18.4,4.5,30.6,16.1,36,34
	c1.8,6.1,4.5,7.1,10,7.1c50.6-0.2,101.2-0.2,151.8,0c6.2,0,10.6-1.7,15.1-5.9c20.9-19.5,45.5-29.9,74.4-28.1
	c20.6,1.3,39,9.8,56.7,19.7c24.8,13.9,49.2,28.4,74.1,42.2c6.6,3.7,14,6.3,21.3,8.1c15.1,3.7,28.3-3.4,41.7-8.9
	c5.1-2.1,6.6-4.6,5.4-10.3c-5.3-26.5,10.5-51.2,36.7-58c12.9-3.3,25.9-6.4,39-8.9c6.7-1.3,9.2-3.7,9.1-11.1c-0.4-45-0.2-90-0.2-135
	c0-2.8-0.2-5.5-0.4-9.2c-3.5,0-6.6,0-9.6,0c-34.4,0-68.8,0-103.2,0c-17.8,0-23.2-5.5-23.2-23.6c0-34.5,0-68.9,0-103.4
	c0-3-0.3-6-0.4-9.3C569.7,156.3,406.3,156.3,242.9,156.3z M333.4,532c-0.5,1.6-0.8,2.6-1.1,3.7c-16.8,73.2-33.7,146.4-50.1,219.6
	c-0.7,3,1.5,7.7,3.8,10.1c62.9,62.7,126,125.1,189.2,187.6c12.4,12.3,27.8,13,38.6,2.2c10.7-10.7,9.9-26.4-2.2-38.7
	c-14.6-14.8-29.4-29.4-44-44.2c-9.1-9.2-9.9-19.7-2.4-27c7.4-7.1,17.4-6.2,26.4,2.7c12.5,12.4,25,25,37.4,37.5
	c21.7,21.8,43.3,43.6,65.2,65.2c9.3,9.2,20.7,10.8,31.2,5.2c9.8-5.3,15.5-16.2,12.5-27.4c-1.6-6-5.5-11.9-9.9-16.4
	c-29.5-30.1-59.4-59.8-89.1-89.6c-2.2-2.2-4.6-4.4-6.1-7.1c-3.9-6.8-3.6-13.7,1.5-19.8c4.9-5.9,13.4-7.9,20.1-4.2
	c3.4,1.9,6.4,4.7,9.2,7.5c40.3,40.2,80.5,80.6,120.7,120.8c2.6,2.6,5.2,5.3,8.1,7.5c14.7,11.1,35.3,3.9,40.1-14
	c3-11.3-1.6-19.8-9.3-27.5c-39.3-39.2-78.4-78.5-117.6-117.8c-2.4-2.4-4.9-4.8-7-7.5c-5.4-7-4.6-16.6,1.5-22.5
	c5.8-5.7,15.1-6.4,21.9-1.4c2.5,1.8,4.7,4.1,6.9,6.3c38.2,38.3,76.4,76.5,114.6,114.8c6.8,6.9,14.8,10.7,24.6,8.7
	c10-2,17.1-7.9,19.8-17.9c2.9-10.5-0.1-19.5-7.8-27.2C729,770.4,678.1,719.3,627.2,668.4c-23.3-23.3-48.4-25.1-76.1-7
	c-16.6,10.9-33.5,21.7-51.5,29.8c-48.1,21.7-90.5,11.6-123.4-27.5c-8-9.5-8.2-18.6,0.8-26.3c34-29.4,61.7-64.6,90.8-98.4
	c1.7-1.9,3.2-4,5.5-7C425.7,532,379.9,532,333.4,532z M413.5,652.8c16,14.2,34.6,19,55.8,13.2c24.3-6.6,44.7-20.7,65.3-34.4
	c38.2-25.4,82.4-21.3,115.2,10.9c14,13.8,27.8,27.8,41.6,41.7c35.8,35.9,71.5,71.7,107.4,107.5c1.9,1.9,5.6,4.4,7.4,3.7
	c13.4-5.3,26.4-11.3,39.8-17.2c-17.1-74.6-33.9-148.3-50.7-221.9c-1.2,0.2-1.5,0.2-1.7,0.3c-3.1,1.3-6.3,2.6-9.4,4
	c-28.6,12.8-56.3,10.9-83.2-4.7c-7.9-4.6-15.7-9.2-23.6-13.6c-23.4-12.8-46.6-26-70.4-38.1c-13.5-6.9-28.1-8.2-43.1-3.8
	c-17.8,5.2-30.7,17.4-42.4,30.5C485.2,570.9,449.7,611.6,413.5,652.8z M818.9,506c0.3,1.6,0.8,3.8,1.3,6
	c5.3,23.3,10.6,46.6,15.9,69.9c15.2,66.3,30.3,132.6,45.6,198.8c3.1,13.5,9.5,17.6,22.7,14.7c14.7-3.2,29.4-6.6,44-10.1
	c13.4-3.2,17.4-9.8,14.4-23c-10.7-46.9-21.4-93.7-32.1-140.6c-9.9-43.3-19.8-86.5-29.7-129.8c-2.3-10.1-9.3-15.7-18.2-13.8
	c-17.5,3.6-34.9,7.7-52.3,12C823.1,492,819.4,497.6,818.9,506z M303.6,507.5c0.6-9.9-4.3-16-14.2-18.3c-14.7-3.4-29.4-6.7-44-9.9
	c-15-3.3-20.8,0.3-24.3,15.5c-20.5,89.6-41,179.1-61.4,268.7c-2.6,11.4,2,18.7,13.5,21.4c13.5,3.2,27.1,6.2,40.7,9.4
	c18.7,4.4,24.2,1,28.4-17.4c15.8-69.1,31.6-138.1,47.3-207.1C294.3,548.7,299,527.6,303.6,507.5z M768.8,257.7c25.8,0,50.9,0,73.8,0
	c-24.3-24.3-49.2-49.4-73.8-74.1C768.8,207.5,768.8,232.4,768.8,257.7z"/>
<path d="M394.2,230c0-4.4-0.2-8.1,0-11.7c0.6-9.5,7.3-16.2,16.3-16.4c9.4-0.3,17.9,6.4,17.3,16c-0.6,10.6,4.2,14,13.1,17.7
	c9.1,3.8,17.6,10.3,24.9,17.2c7.9,7.4,7,18.5-0.2,25c-7.5,6.7-16.6,5.6-24.9-2.3c-10.7-10.1-23.3-15.2-38.1-11.8
	c-12.9,3-22.1,13.9-21.9,25c0.3,11.5,10.4,22.2,23.6,24.5c4.7,0.8,9.6,1,14.4,1.4c28.6,2.4,53.4,24.1,57.2,50.2
	c4.2,28.5-11.4,53.9-40.1,64.7c-5.1,1.9-6.8,4.3-6.6,9.8c0.3,12-6.5,19.3-16.7,19.5c-10.3,0.1-16.7-6.6-17.1-19
	c-0.2-5.3-2.1-7.3-6.9-9.9c-10.1-5.4-19.8-12-28.7-19.4c-7.2-6-6.9-16.3-1.1-23.1c6.1-7.1,15.7-8,23.7-1.9c3.2,2.4,6,5.3,9.1,7.7
	c12.5,9.6,30.7,8.9,42.5-1.4c7.3-6.4,10.2-14.6,7.5-23.8c-3.3-11.2-12.1-16.9-23.1-18.9c-6.7-1.2-13.6-0.9-20.3-2.2
	c-28.4-5.4-49.2-28-51.4-55.1c-2.1-25.5,14.9-49.5,42.1-59.7C390.4,231.5,392,230.9,394.2,230z"/>
<path d="M612,278.2c-20.2,0-40.4,0.2-60.6-0.1c-11.2-0.1-18.6-7.3-18.6-17c0-9.7,7.3-16.4,18.6-17c2.3-0.1,4.5-0.1,6.8-0.1
	c26.4,0,52.9,0,79.3,0c12.8,0,25.6-0.2,38.4,0.3c9.6,0.4,16.2,7.5,16.4,16.4c0.3,9.1-6.6,16.4-16.5,17.3c-2.5,0.2-5.1,0.2-7.7,0.2
	C649.5,278.2,630.8,278.2,612,278.2z"/>
<path d="M612.8,344.8c-20.8,0-41.5,0.2-62.3-0.1c-9.7-0.1-15.9-5.8-17.3-14.5c-1.2-7.6,3.4-16,10.9-18.3c3.7-1.1,7.9-1.2,11.8-1.2
	c25.6-0.1,51.2-0.1,76.8,0c14.8,0,29.6-0.2,44.3,0.4c9,0.4,15.3,7.8,15.5,16.3c0.2,8.5-6,15.7-14.9,17c-2.8,0.4-5.7,0.4-8.5,0.4
	C650.3,344.9,631.5,344.9,612.8,344.8C612.8,344.8,612.8,344.8,612.8,344.8z"/>
<path d="M612.3,411.5c-20.5,0-41,0.3-61.4-0.1c-14.1-0.3-22.8-13.7-15.7-24.6c2.9-4.5,9.8-8.8,15-8.9c41.5-0.7,83-0.6,124.5-0.3
	c10.6,0.1,17.7,7.6,17.6,17c-0.1,9.4-7.2,16.7-17.8,16.9C653.9,411.7,633.1,411.5,612.3,411.5z"/>
</svg>
