<?xml version="1.0" encoding="utf-8"?>
<!-- Generator: Adobe Illustrator 27.4.1, SVG Export Plug-In . SVG Version: 6.00 Build 0)  -->
<svg version="1.1" id="Capa_1" xmlns="http://www.w3.org/2000/svg" xmlns:xlink="http://www.w3.org/1999/xlink" x="0px" y="0px"
	 viewBox="0 0 1080 1080" style="enable-background:new 0 0 1080 1080;" xml:space="preserve">
<style type="text/css">
	.st0{fill:#B6B6B6;}
</style>
<path d="M715,633.7c-6.1,5.9-12,12-18.3,17.7c-3.1,2.8-2.6,6.1-2.6,9.5c0,59.9,0,119.8,0,179.6c0,14.3-9,23.3-23.3,23.3
	c-137.6,0-275.2,0-412.8,0c-12.6,0-22.8-11.9-20-24.1c0.7-3.2,1-6.2,1-9.3c0-194.5,0-389.1,0.2-583.6c0-5-2.4-9.6-1.1-14.7
	c4.1-16,9.1-17.6,25.4-17.9c43.6-0.8,87.3-0.5,130.9,0c8,0.1,9.6-2.2,9.3-9.7C403,190,403.4,190,389,190c-47.4,0-94.7,0-142.1,0
	c-7,0-13.8,1.1-20.1,4.7c-8.4,4.8-13.8,16.7-12,26.3c0.3,1.8,0.1,3.7,0.1,5.5c0,169.8,0,339.6-0.1,509.3c0,7.3,1.8,15.3-5.4,21.3
	c-4.4,3.7-9.4,4.2-13,1.7c-4-2.7-5-4-5.6-13.4c-0.1-1.6,0.1-3.8,0.1-5.6c0-171.9,0.2-343.8-0.3-515.7c-0.1-17.9,4.5-32.9,17.2-45
	c7.5-7.2,16.9-10.8,27.7-11.9c21.4-2.2,42.9-0.8,64.3-1.3c3.8-0.1,5.3-1.1,4.8-4.9c-1.3-11.3,2.5-21.3,8.8-30.1
	c5-7.1,12.7-10.1,21.3-11.4c18.2-2.8,36.5-1,54.7-1.5c0.8,0,1.6-0.1,2.4,0c7.3,1,12,0,14.3-9c2-7.9,9.6-12.3,18.4-13.4
	c24.3-3.2,48.7-1,73-1.4c14.7-0.3,25.7,6.4,30.5,20.8c1.4,4.1,3.7,2.9,6,3c17.8,0.1,35.7-0.1,53.5,0.1c13.3,0.2,24.5,5,32.7,15.9
	c5.6,7.5,6,16.1,5.3,24.7c-0.5,6,1.4,7.5,7.3,7.4c17-0.5,34.1-0.7,51.1,0c15.5,0.6,30.5,3.2,42.2,15.5c8.5,9,14,19,14.5,31.4
	c2.9,68,0.5,136.1,1.3,204.1c0,2.3,0,4.6,0,8.7c19.1-19.1,37.7-36.5,54.8-55.3c10.8-11.8,23-14.9,37.4-10.8
	c4.9,1.4,7.2,0.2,10.1-2.8c6.6-6.7,13.2-13.3,20-19.9c7.5-7.3,24-6.3,31.9,0.5c7,6,13.4,12.6,20.1,18.9c11.7,11,13.5,28.3,0.3,40.2
	c-3.6,3.2-6.6,7-10.2,10.1c-6.4,5.6-10.6,11.2-7.7,20.8c3.8,12.6-2.1,22.7-10.9,31.6c-47.2,47.5-94.2,95.2-141.4,142.7
	c-3.3,3.3-4.3,6.7-4.3,11.2c0.1,80.9,0.1,161.8,0.1,242.7c0,20.2-8,36.5-24.7,48.2c-5.9,4.1-13.1,5-19.6,7.7
	c-155.4,0-310.9,0-466.3,0c-9.5-4.3-19.7-7.5-26.4-16.1c-7.2-9.2-13.6-18.7-13.6-31.2c0-19.9-0.2-39.7-0.3-59.6c0-1.7-0.1-3,0.2-5.1
	c1.9-7.1,8.1-8.4,13.5-7.3c6.5,1.4,10.5,6.4,10.5,13.9c-0.1,17.8,0.1,35.7-0.1,53.5c-0.1,12.4,5.8,20.6,16.3,26.4
	c3.2,1.8,6.6,1.5,9.9,1.5c148,0,295.9-0.2,443.9,0.3c19.5,0.1,33.1-13.8,33-33.7c-0.3-58.3-0.1-116.6-0.1-174.8
	c0-15.2-0.1-30.3-0.2-45.5c0-0.6,0.2-1.2-0.7-1.6C716.2,632,715.6,632.9,715,633.7z M603.2,182c-0.1-1.7-0.2-3.4-0.3-5
	c0.1-6.6,0.2-13.3,0.1-19.9c-0.2-9.8-5.4-15-15.1-15c-13.3,0-26.6,0-39.9,0c-19.4,0-19.2,0-18.5,19.2c0.1,3.8,1.2,4.8,4.9,4.9
	c8.6,0.4,17.2-0.9,25.9,1.1c7.3,1.7,9.8,5.8,9.3,12c-0.5,6.4-4.8,10.2-11.4,10.7c-4,0.3-8,0.1-12,0.1c-16.8,0-16.5,0-16.9,16.8
	c-0.2,6.2,1.7,7.3,7.5,7.3c43.6-0.3,87.3-0.1,130.9-0.2c8.7,0,16.6,1.8,22.1,9.2c3.9,5.3,4.2,11.6,4.2,17.9c0,74.2,0,148.5,0,222.7
	c0,2.8,0,5.6,0,10.2c7.4-7.5,13.3-13.8,19.6-19.7c3.2-3,4.4-6,4.4-10.4c-0.1-71.8,0-143.7-0.2-215.5c0-6.5-0.5-13.2-2.4-19.3
	c-4.3-13.6-14.1-18.3-28.8-18.8c-23.9-0.8-47.9-0.3-71.8-0.1C608.8,190.1,604.8,188.1,603.2,182z M670,681.9c0-0.6-0.3-1.5-0.7-1.6
	c-1-0.3-1.4,0.5-2.2,1.3c-11.5,11.4-23.2,22.6-34.5,34.2c-3.2,3.3-6.9,5.7-11,7.2c-14.2,5.1-28.7,9.6-43,14.7
	c-15.9,5.7-32.3,10.4-48,16.9c-5.6,2.3-12.2,4.1-18.6-0.4c-11.2-7.8-13.8-15-9-28.7c8.2-23.4,16.4-46.8,25.1-70
	c3.5-9.5,4.4-20.3,12-28c41.3-41.4,82.7-82.8,124.2-124.1c4-4,5.9-8.2,5.8-13.9c-0.2-22.6-0.1-45.2-0.1-67.8
	c0-58.8,0-117.6-0.1-176.4c0-3.1,2.2-7.6-4.6-7.6c-44.2,0.2-88.3,0.1-132.5,0.1c-2.5,0-3.7,0.3-4.9,3.3c-5.6,14-15.8,21.3-31.6,20.7
	c-22.2-0.9-44.4,0.6-66.6-0.8c-13-0.8-20.7-5.1-24.7-17.5c-1.5-4.7-3.8-5.9-8.8-5.8c-41.2,0.3-82.5,0.4-123.7,0
	c-7.6-0.1-10,1.2-10,9.6c0.3,178.5,0.2,357.1,0.2,535.6c0,1.3,0.2,2.7,0,4c-0.7,4.4,1.5,5.1,5.4,5.1c132-0.1,264-0.1,395.9,0
	c4.2,0,6.1-0.6,6-5.5C670,751.6,670,716.8,670,681.9z M735.1,578c10.8-10.7,22-20.8,32.7-31.4c34.3-34,68-68.7,101.9-103.1
	c0.9-0.9,1.9-1.9,2.8-2.8c5.4-4.9,4.8-10.7,0.6-15.1c-13.4-14-27.2-27.8-41.3-41.1c-4.3-4.1-10-4.9-15.5,0.2c-3.2,3-5.9,6.3-9,9.4
	c-40.9,40.7-81.7,81.6-122.6,122.4c-4,3.9-5.5,6.2-0.5,11C701.5,543.9,718.2,561.1,735.1,578z M466.8,815.9c-62.8,0-125.6,0-188.3,0
	c-15.6,0-15.1,0-15.7,15.6c-0.3,7.2,1.9,8.5,8.7,8.5c127.7-0.2,255.4-0.2,383.1-0.2c15.7,0,15.2,0,15.9-15.6
	c0.3-7.4-2.1-8.5-8.8-8.5C596.6,816,531.7,815.9,466.8,815.9z M427.4,177.1c0,18.1,0.1,36.2-0.1,54.3c-0.1,5.1,1.6,6.7,6.8,6.6
	c21-0.3,42-0.2,63,0c6.2,0.1,8.6-2.4,8.6-8.5c-0.1-34.3-0.1-68.6,0-102.9c0-6-2.2-8.6-8.5-8.5c-21,0.2-42,0.3-63-0.1
	c-5.8-0.1-7,2-6.9,7.3C427.6,142.5,427.4,159.8,427.4,177.1z M684.8,628.4c-17.4-17.5-34.8-34.7-51.9-52.1c-3.2-3.3-5.5-4-9-0.4
	c-18.5,18.7-37.1,37.3-55.8,55.8c-3.5,3.5-3.3,5.9,0.1,9.2c16.1,15.9,32,31.9,47.9,47.9c3.2,3.2,5.3,3,8.5-0.2
	C644.5,668.5,664.7,648.5,684.8,628.4z M701.9,611.8c3.8-4,7.2-8.2,11.2-11.6c3.8-3.3,4-5.4,0.1-9.2c-15.2-14.7-30.1-29.9-45.1-44.9
	c-6.7-6.7-8.5-6.7-14.8,0.5c-1.4,1.5-2.1,3.7-3.7,4.9c-3.7,3-2.9,5.1,0.2,8.2C667.1,576.9,684.3,594.2,701.9,611.8z M336.1,166.1
	c12.5-0.5,22.5-0.4,29.5-0.1c10.9,0.4,21.8,0.1,32.6-0.1c1.9,0,4.9,1.2,5-2.1c0.3-6.6,0.3-13.3,0-19.9c-0.1-2.6-2.8-1.9-4.5-1.9
	c-18.3,0-36.6,0.1-54.9-0.1c-6.1-0.1-10.6-0.4-13.4,2.5c-1.2,1.3-1.9,3-2.2,3.6c-1.2,2.9-1.1,5.4-1,7.1c0.2,3,0.4,5.5,2.2,7.6
	C331.7,165.5,334.9,166,336.1,166.1z M598.5,703.9c-0.3-0.4-0.6-1.2-1.1-1.7c-13.3-13.3-26.5-26.8-40.1-39.9c-2.6-2.5-5.9-2.7-7,2.6
	c-0.8,4.2-2.4,8.4-4.5,12.2c-2.6,4.7-1.2,7.7,2.3,10.9c6.4,6,13.1,11.8,18.5,18.7c5.6,7.1,11.5,7.6,18.6,3.7c3.4-1.8,6.9-3,10.5-4.3
	C596.6,705.8,598.5,706.1,598.5,703.9z M902.3,377c-0.6-0.9-1.1-1.5-1.4-2.2c-4.2-8.3-12.6-12.3-18.9-18.4c-1.3-1.3-3.4-0.2-4.8,1.3
	c-5.4,5.5-10.7,11-16.3,16.3c-2.4,2.3-2,3.7,0.2,5.7c5.4,5.1,10.6,10.4,15.7,15.7c3,3.1,5.2,2.4,7.9-0.4
	c4.9-5.2,10.1-10.1,15.1-15.2C900.6,379,901.4,378,902.3,377z M528.3,730c7.4-2.6,13.9-4.9,21.6-7.6c-4.6-4.3-8.7-8-12.8-11.8
	c-1.8-1.7-3.3-2.9-4.3,0.8C531.4,717.3,528.3,722.7,528.3,730z"/>
<path d="M335.2,469.3c0.1-21.3,0-42.5,0.3-63.8c0-4-1.1-5.8-4.8-7.5c-12.7-5.9-24.8-12.7-31.3-26.3c-11.7-24.6,2.1-56.9,28.3-65
	c5.9-1.8,6.5-5,6.5-10.1c0-11.2,5.1-17,14.4-15.7c6.2,0.9,9.5,3.6,9.5,10c0,2.4,0.1,4.8,0,7.2c-0.3,4.4,0.8,6.5,6,7.1
	c9.8,1,18,6,25.1,12.6c5.5,5.1,5.4,10.1,0.5,15.7c-5.6,6.3-10,7-16.1,2c-2.5-2-4.9-3.9-7.9-4.9c-1.7-0.5-1.1-4.8-4.4-2.5
	c-2.2,1.5-1.8,3.6-1.8,5.7c0,15.4,0.1,30.8-0.1,46.3c0,4.2,1.6,5.5,5.6,6.8c18.2,6.2,33.6,16.3,38.3,36.2c6.7,28.6-7,60.2-38.3,68.8
	c-5.6,1.5-7.4,4.5-7,10.2c0.5,6.4,1.7,13.4-6.2,17.1c-5.4,2.5-12.5,0.7-14.3-4.8c-2-6.3-1.1-16-5.1-18.4c-4.5-2.7-12.4-2.1-18.3-4.6
	c-5.6-2.4-11.2-5.1-16.3-8.8c-6.5-4.8-9.3-12.8-5.8-18c3.6-5.3,10.9-6.3,18.2-2c7.4,4.4,14.7,8.5,23.7,8.3
	C335.1,471,335.6,470.6,335.2,469.3z M333.9,371.8c1.2,0.2,1.2-0.1,1.3-1.4c0-13.6,0-27.2,0-41.9c-12.1,7-16.8,16.1-15.6,28.1
	C320.5,365.2,326.2,369.5,333.9,371.8z M359.6,468.8c17.1-8.1,23.3-21.9,20.5-39.6c-1.7-10.9-10.3-15.8-20.5-18.9
	C359.6,430.1,359.6,449.4,359.6,468.8z"/>
<path d="M533.6,349.7c-29.5,0-59.1,0-88.6,0c-10.2,0-13.5-3-13.6-11.8c-0.1-8.1,4.1-12.1,13.4-12.1c59.1-0.1,118.1-0.1,177.2,0
	c8.8,0,13.9,4.7,13.8,12.3c-0.1,7.2-5.2,11.6-13.6,11.6C592.7,349.7,563.1,349.7,533.6,349.7z"/>
<path d="M343.1,624.1c-2.4-0.1-5.8-0.6-9.7-2.1c-5.9-2.3-9.6-5.8-12-8.1c-2.1-2-5.1-5-7.5-9.6c-2.5-4.9-3.8-10.4-3.6-16
	c0.5-18.3,14.9-36.3,35.4-35.6c19.3,0.6,37.6,16.4,36.4,38.3C381.4,605.1,364.4,627.1,343.1,624.1z M357.9,588.2
	c-0.1-6.1-5.4-11.7-11.2-11.8c-5.8-0.1-12.9,6.7-12.7,12.1c0.2,6.1,6.3,12,12.2,11.7C352.8,600.1,358,594.6,357.9,588.2z"/>
<path d="M346,673.8c3.4,0,14.6,0,24.3,8.4c11.5,9.9,11.9,23.8,11.9,25.8c0.3,18.4-14.3,29-16,30.1c-2.2,1.5-8.6,5.9-18,6.3
	c-1.4,0.1-8,0.3-15.5-3.1c-10.1-4.5-22.3-15.9-22.6-32.3c-0.2-15.4,10.4-25.2,11.8-26.5C331.6,674.2,342.7,673.9,346,673.8z
	 M347,697.8c-7.9,0-13.4,4.4-13,10.7c0.3,6,6.3,11.5,12.3,11.6c8.1,0,11.6-3.6,11.6-12.1C357.9,700,355.5,697.8,347,697.8z"/>
<path d="M500.5,397.6c-18.9,0-37.7,0.1-56.6,0c-8.9,0-12.3-3.1-12.5-11.2c-0.2-8,3.6-12.5,12-12.6c37.7-0.2,75.5-0.2,113.2,0
	c6.2,0,12.7,1.2,14.9,8.5c1.4,4.6-0.1,8.6-3.6,12.1c-2.9,2.9-6.3,3.3-10.1,3.2C538.7,397.5,519.6,397.6,500.5,397.6z"/>
<path d="M472,576.4c-17.5,0-35,0-52.6,0c-7.6,0-13-4.3-13.6-10.8c-0.7-6.6,3.8-11.7,11.6-13c1.3-0.2,2.6-0.1,4-0.1
	c34.8,0,69.6,0,104.3,0c4.5,0,9,0.5,12.3,3.8c3.3,3.3,4.7,7.4,2.8,12.2c-2.3,5.5-6.4,8-12.2,8C509.7,576.4,490.9,576.4,472,576.4z"
	/>
<path d="M485.3,445.5c-13.8,0-27.6,0.1-41.4,0c-8.9-0.1-12.2-3.2-12.5-11.2c-0.2-8,3.6-12.5,12-12.6c28.7-0.2,57.3-0.1,86,0
	c6,0,10.6,5.6,10.5,12c0,6.4-4.7,11.7-10.9,11.7C514.5,445.6,499.9,445.5,485.3,445.5z"/>
<path d="M469.3,493.3c-8.8,0-17.5-0.1-26.3,0c-7.2,0.1-11.2-3.1-11.6-10.5c-0.4-7.8,2.9-13,10.5-13.2c19.1-0.5,38.2-0.7,57.3,0.2
	c5.8,0.3,9.7,5.6,9,12.5c-0.6,6.4-4.3,10.4-10.2,10.8C488.4,493.8,478.8,493.3,469.3,493.3z"/>
<path d="M441.1,624.3c-7.7,0-15.4-0.3-23.1,0.1c-7.4,0.4-10.8-4.4-11.9-10c-1.1-5.9,1.2-10.7,8.3-12.8c5.6-1.6,10.9-1,16.3-1.1
	c11.7-0.3,23.3-0.1,35-0.1c7.3,0,11.8,4.6,11.9,11.9c0.1,6.4-5,11.7-12,12C457.5,624.5,449.3,624.3,441.1,624.3z"/>
<path d="M441.2,744.1c-7.5,0-14.9,0-22.4,0c-7.1,0-12.5-4.3-12.9-10.7c-0.4-6.6,2.6-11.5,9.3-12.1c17.8-1.7,35.7-2.2,53.5,0.3
	c7.1,1,9.2,6.1,8.7,11.8c-0.6,6.4-5,10.4-11.6,10.6C457.7,744.3,449.4,744.1,441.2,744.1z"/>
<path d="M440.2,696.1c-7.5,0-14.9-0.3-22.3,0.1c-7.5,0.4-10.6-4.6-11.7-10.2c-1.2-5.8,1.4-10.4,7.9-12.4c2.5-0.8,5-1.3,7.6-1.3
	c13.6,0,27.1-0.1,40.7,0c9.7,0.1,15.3,4.5,15.4,11.8c0.1,7.4-5.7,12.1-15.2,12.1C455.1,696.2,447.6,696.2,440.2,696.1
	C440.2,696.2,440.2,696.2,440.2,696.1z"/>
<path class="st0" d="M335.2,469.3c0.4,1.3-0.1,1.7-1.3,1.4C334.3,470.2,334.8,469.8,335.2,469.3z"/>
</svg>
