<?xml version="1.0" encoding="utf-8"?>
<!-- Generator: Adobe Illustrator 27.4.1, SVG Export Plug-In . SVG Version: 6.00 Build 0)  -->
<svg version="1.1" id="Capa_1" xmlns="http://www.w3.org/2000/svg" xmlns:xlink="http://www.w3.org/1999/xlink" x="0px" y="0px"
	 viewBox="0 0 1080 1080" style="enable-background:new 0 0 1080 1080;" xml:space="preserve">
<path d="M234.5,932.1c-2.4-0.9-4.7-1.7-7.1-2.6c-18.3-6.4-30.6-22.9-31.1-42.2c-0.1-2.3,0-4.6,0-6.9c0-226.9,0-453.8,0-680.8
	c0-33.7,18.2-51.8,52.1-51.9c171.8,0,343.6,0,515.4,0c32.8,0,51.4,18.5,51.4,51c0,98.3,0,196.5,0,294.8c0,2.3,0.1,4.6-0.1,6.9
	c-0.9,8.3-7.3,14-15.5,13.8c-7.8-0.2-13.9-5.7-14.8-13.7c-0.3-2.5-0.1-5.1-0.1-7.7c0-97.8,0-195.5,0-293.3
	c0-16.7-4.6-21.2-21.5-21.2c-171.5,0-343.1,0-514.6,0c-17.2,0-21.5,4.4-21.5,21.9c0,226.4,0,452.8,0,679.2
	c0,17.4,4.4,21.9,21.6,21.9c111,0,222.1,0,333.1,0c2.6,0,5.1-0.1,7.7,0.1c7.1,0.7,11.9,4.5,13.9,11.3c1.9,6.6-0.5,12-5.8,16.2
	c-1.4,1.1-2.9,2-4.3,3C473.4,932.1,353.9,932.1,234.5,932.1z"/>
<path d="M720,932.1c-14.7-3.8-30-6.1-44.1-11.7c-99.6-39-134.4-161.1-71-247.3c1.5-2,2.8-4,5.1-7.2c-10.4,0-19.5,0-28.6,0
	c-11.5,0-17.8-4.1-19.2-12.3c-1.5-9,2.7-14.6,14-18.4c0.4-0.1,0.8-0.6,2.7-2.2c-3.9-3.2-7.9-6-11.3-9.4c-7.3-7.4-7.7-16.7-1.2-23
	c6.4-6.3,15.5-5.7,23.1,1.6c3.3,3.2,6.4,6.6,10.2,10.6c1-2.7,1.6-4.5,2.2-6.2c2.7-7.3,9.1-11.2,16.9-10.1c7,1,12.3,6.6,12.5,14.2
	c0.3,10.7,0.1,21.3,0.1,33.2c2.6-1.6,4.3-2.4,5.8-3.5c99.1-73.6,237.9-17.8,258.6,103.9c15,88.7-50.1,175.7-139.3,186.3
	c-2,0.2-3.9,1-5.9,1.4C740.5,932.1,730.3,932.1,720,932.1z M632.8,687.8c-44.9,54.9-36.5,136.9,17.3,182.3
	c55.2,46.6,137.1,40.5,184.4-13.8C881.9,802,877,720,823.3,671.8c-54.6-49-130.2-39.5-169.1-4.5c5.5,5.4,11.2,10.5,16.3,16.1
	c3.6,4,6.2,4.1,10.8,1.2c21-13.4,44-18.5,68.7-14.7c46.5,7,81.8,44.4,86.1,91.4c4.1,45.5-24.2,89-68,104.2
	c-43.7,15.2-93.1-1.6-117.8-41.3c-22.2-35.8-21.7-72.4-0.1-108.4c2.9-4.8,2.5-7.2-1.3-10.8C643.4,699.7,638.4,693.8,632.8,687.8z
	 M697.2,711.3c4.5,4,8.8,7.2,12.4,11.2c3.8,4.2,7,5.3,13,3.5c17.6-5.4,33.5-0.9,46.1,12.5c12.3,13.1,15.8,28.8,10,46.1
	c-8,23.8-33.4,36.6-57.2,29.1c-24-7.6-37.3-33.1-30.2-57.4c0.8-2.7,1.1-6.7-0.4-8.7c-4-5.5-9.1-10.3-13.8-15.4
	c-19.7,22.9-14.9,64.8,9.1,88.1c26.8,26.1,68.7,26.8,96.4,1.7c27.5-24.9,31-66.4,8.1-95.5C768.5,698,726.9,690.7,697.2,711.3z
	 M720.1,771.2c3.5,10.4,9.7,14.9,17.6,13.6c7-1.2,12.4-7.2,12.9-14.2c0.5-7.8-4.4-13.6-13.8-15.7C735.5,764.3,730.2,770,720.1,771.2
	z"/>
<path d="M548.8,397.6c37.2-37.3,73.8-73.9,110.5-110.6c16.2-16.3,32.5-32.5,48.7-48.7c7.9-7.9,17.1-8.7,23.6-2.3
	c6.9,6.8,6.1,15.8-2.2,24.2c-25.1,25.1-50.2,50.1-75.2,75.4c-2.3,2.3-4.5,5.9-4.5,8.9c-0.3,59-0.2,117.9-0.2,176.9
	c0,0.7,0.2,1.5,0.4,2.8c17.9,0,35.9,0,54.8,0c0-2.7,0-5.4,0-8.2c0-55.4,0-110.8,0-166.2c0-2.6-0.1-5.1,0.2-7.6
	c1-7.8,7.5-13.5,15.2-13.5c7.6,0,14.1,5.8,15.1,13.6c0.3,2,0.2,4.1,0.2,6.1c0,62.3,0,124.6,0,186.9c0,15.1-5.1,20.1-20.3,20.1
	c-139.6,0-279.3,0-418.9,0c-15.2,0-20.3-5-20.3-20.1c0-74.3,0-148.6,0-222.9c0-1,0-2,0-3.1c0.2-9.9,6.3-16.8,15-17
	c8.9-0.2,15.6,6.8,15.6,17.1c0.1,37,0,74,0,111c0,2.8,0,5.5,0,10c2.9-2.7,4.9-4.4,6.8-6.2c38.5-38.4,76.9-76.9,115.4-115.3
	c12.5-12.5,18.6-12.5,31.3,0.2c27.6,27.6,55.2,55.2,82.9,82.8C544.5,393.6,546.4,395.3,548.8,397.6z M446.9,524.4
	c3.1-34.6,1.1-182.4-2.7-186.9c-1.3,1.1-2.7,2-4,3.2c-14.8,14.8-29.7,29.4-44.2,44.4c-2.1,2.2-3.6,6.1-3.6,9.3
	c-0.2,41.3-0.2,82.6-0.1,123.9c0,2,0.3,3.9,0.4,6.1C410.9,524.4,428.6,524.4,446.9,524.4z M533.2,524.4c0-20.3,0-39.9,0-59.5
	c0-13,3.4-27.4-1.2-38.6c-4.6-11.1-17.3-18.9-26.3-28.2c-8.6-8.9-17.1-17.9-25.6-26.8c-0.5,0.4-1,0.8-1.6,1.2c0,50.5,0,101,0,151.9
	C496.6,524.4,514.4,524.4,533.2,524.4z M618.5,524.3c0-50.9,0-101.3,0-152.2c-1.1,0.6-1.8,0.8-2.3,1.3
	c-16.6,16.6-33.3,33.1-49.7,49.9c-1.8,1.8-2.6,5.4-2.6,8.2c-0.2,18.9-0.1,37.8-0.1,56.7c0,11.9,0,23.8,0,36.1
	C582.3,524.3,600.1,524.3,618.5,524.3z M361.3,419.6c-18.4,18.4-35.5,35.5-52.6,52.7c-1.1,1.1-2.2,3-2.2,4.6
	c-0.2,15.7-0.1,31.5-0.1,47.4c18.8,0,36.7,0,54.8,0C361.3,489.6,361.3,455.5,361.3,419.6z"/>
<path d="M360.8,598.2c22.2,0,44.3,0,66.5,0c11.5,0,18.7,6.1,18.5,15.6c-0.2,9.2-7.2,15-18.4,15c-44.3,0-88.7,0-133,0
	c-11.6,0-18.7-6.1-18.5-15.6c0.2-9.2,7.1-15,18.4-15C316.4,598.2,338.6,598.2,360.8,598.2z"/>
<path d="M360.3,702.4c-22.4,0-44.8,0.1-67.3,0c-10.4,0-17.2-6.4-17.2-15.4c0.1-9,6.9-15,17.4-15.2c0.5,0,1,0,1.5,0
	c44.1,0,88.2,0,132.2,0c11.7,0,18.8,5.9,18.7,15.4c-0.1,9.5-7.1,15.2-19,15.2C404.7,702.4,382.5,702.4,360.3,702.4z"/>
<path d="M360.8,745.3c22.2,0,44.3,0,66.5,0c11.6,0,18.7,6.1,18.5,15.6c-0.2,9.2-7.2,15-18.4,15c-44.3,0-88.7,0-133,0
	c-11.6,0-18.7-6.1-18.5-15.6c0.2-9.2,7.1-15,18.4-15C316.4,745.2,338.6,745.3,360.8,745.3z"/>
<path d="M360.9,849.4c-22.2,0-44.3,0-66.5,0c-11.5,0-18.7-6.2-18.5-15.7c0.2-9.2,7.2-14.9,18.4-14.9c44.3,0,88.7,0,133,0
	c11.5,0,18.7,6.2,18.5,15.6c-0.2,9.2-7.2,14.9-18.4,15C405.2,849.5,383,849.4,360.9,849.4z"/>
<path d="M291.2,261.2c-8.2,0-15.2-6.8-15.3-15c-0.2-8.2,6.6-15.3,14.8-15.5c8.5-0.3,15.8,6.9,15.7,15.4
	C306.3,254.2,299.4,261.1,291.2,261.2z"/>
<path d="M799.7,537c8.2,0,15.1,6.9,15.2,15.1c0.1,8.5-7.2,15.7-15.7,15.4c-8.2-0.2-15-7.3-14.9-15.5
	C784.6,543.8,791.5,537,799.7,537z"/>
</svg>
