<svg xmlns="http://www.w3.org/2000/svg" width="193.554" height="141.221" viewBox="0 0 193.554 141.221">
  <g id="money" transform="translate(-27.019 -165.715)">
    <path id="Trazado_94" data-name="Trazado 94" d="M53.115,227.134l2.062,13.383a11.882,11.882,0,0,0,7.961-4.764l.123-.158a11.92,11.92,0,0,0,1.6-10.568l-11.5,1.773a.262.262,0,0,0-.189.111l-.008.009a.215.215,0,0,0-.057.213h0Zm159.6,38.167a11.917,11.917,0,0,0-10.1,13.791l11.651-1.8a.341.341,0,0,0,.194-.121l.041-.055a.342.342,0,0,0,.015-.166l-1.8-11.651ZM196.628,280l-114.3,17.62a17.991,17.991,0,0,0-6.965-11.766l-.2-.151a18.048,18.048,0,0,0-13.526-3.239L56.1,246.486a18.039,18.039,0,0,0,11.925-7.163l.14-.209A18.027,18.027,0,0,0,70.9,224.079l114.5-17.65a18,18,0,0,0,20.859,16.9l5.546,35.98a17.951,17.951,0,0,0-15.238,15.419A17.534,17.534,0,0,0,196.63,280h0ZM76.346,298.545a11.925,11.925,0,0,0-4.6-7.848l-.166-.113a11.88,11.88,0,0,0-9.027-2.143l1.8,11.651a.29.29,0,0,0,.113.2l.009.008a.28.28,0,0,0,.213.049l11.659-1.8ZM191.419,205.51a11.916,11.916,0,0,0,13.9,11.851l-2.062-13.383a.3.3,0,0,0-.113-.2h-.008a.3.3,0,0,0-.223-.055l-11.5,1.788v-.008ZM129.1,221.476a30.924,30.924,0,1,0,22.991,5.62A30.827,30.827,0,0,0,129.1,221.476Zm19.412,10.5a24.878,24.878,0,1,0,9.876,16.271A24.788,24.788,0,0,0,148.508,231.978Zm-20.622,1.513.345,2.236a10.1,10.1,0,0,0-5.224,5.4,9.465,9.465,0,0,0-.594,5.029,9.157,9.157,0,0,0,1.97,4.373c1.992,2.441,5.279,3.428,8.561,4.4,2.4.713,4.8,1.426,5.6,2.409a3.173,3.173,0,0,1,.692,1.509,3.445,3.445,0,0,1-.228,1.815,4.015,4.015,0,0,1-3.037,2.445l-.079.013a2.848,2.848,0,0,0-.372.032l-.089.013a4.415,4.415,0,0,1-3.071-.609l-.019-.013a5.618,5.618,0,0,1-1.728-3.5,3.014,3.014,0,0,0-5.918,1.149,11.267,11.267,0,0,0,4.035,7.18,9.226,9.226,0,0,0,4.645,1.77l.36,2.332a3.025,3.025,0,0,0,5.978-.922l-.345-2.236a10.1,10.1,0,0,0,5.224-5.4,9.465,9.465,0,0,0,.594-5.029,9.158,9.158,0,0,0-1.97-4.373c-1.992-2.441-5.279-3.428-8.561-4.4-2.4-.713-4.8-1.426-5.6-2.409a3.173,3.173,0,0,1-.692-1.509,3.444,3.444,0,0,1,.228-1.815,4.065,4.065,0,0,1,1.194-1.621,3.928,3.928,0,0,1,1.841-.834l.079-.013a3.031,3.031,0,0,0,.372-.032l.089-.013a4.442,4.442,0,0,1,3.081.617,5.673,5.673,0,0,1,1.728,3.5,3.014,3.014,0,0,0,5.918-1.149,11.261,11.261,0,0,0-4.026-7.173l-.011-.015a9.227,9.227,0,0,0-4.645-1.77l-.36-2.332a3.025,3.025,0,0,0-3.45-2.528,3.06,3.06,0,0,0-2.517,3.473h0Zm56.792-33.069-4.656-10.57A17.973,17.973,0,0,1,155.5,178.931L64.647,218.925l120.033-18.5Zm-137.61,26.24-13.836,6.1a.3.3,0,0,0-.157.155v.015a.286.286,0,0,0,.013.228L55.9,284.975l-8.774-56.919a6.44,6.44,0,0,1-.058-1.394ZM65.913,306.28c-.083.045-.168.083-.253.121a6.339,6.339,0,0,1-4.858.1v-.008a6.321,6.321,0,0,1-3.511-3.347L27.551,235.585a6.374,6.374,0,0,1-.1-4.858l.009.008a6.362,6.362,0,0,1,3.347-3.511l138.345-60.909a2.524,2.524,0,0,1,.37-.155,6.381,6.381,0,0,1,8.054,3.122,3.408,3.408,0,0,1,.174.375l13.128,29.822,11.131-1.715a6.344,6.344,0,0,1,4.724,1.158l-.008.009a6.345,6.345,0,0,1,2.526,4.147L220.5,276.042a6.34,6.34,0,0,1-.979,4.458l-.172.264a6.376,6.376,0,0,1-4.156,2.528L65.913,306.282ZM177.589,184.328a11.931,11.931,0,0,1-16.5-7.859l10.655-4.694a.323.323,0,0,1,.236-.011.288.288,0,0,1,.155.149Z" transform="translate(0 0)" fill="#0259fa" fill-rule="evenodd"/>
  </g>
</svg>
