<svg xmlns="http://www.w3.org/2000/svg" width="151.662" height="153.939" viewBox="0 0 151.662 153.939">
  <path id="Trazado_404" data-name="Trazado 404" d="M193.1,184.493a6.127,6.127,0,0,1-5.143,6.112l-53.692,8.64v7.229a6.679,6.679,0,0,1-6.664,6.664H72.964a6.679,6.679,0,0,1-6.664-6.664V133.116a6.679,6.679,0,0,1,6.664-6.664H87.082L80.757,87.139a6.115,6.115,0,0,1,5.067-7L107,76.736l-.013-11.424h-.006A6.124,6.124,0,0,1,113.1,59.2h60.23a1.565,1.565,0,0,1,.732.179,1.4,1.4,0,0,1,.559.461l27.254,27.254a1.4,1.4,0,0,1,.461.565,1.545,1.545,0,0,1,.179.732v5.5a17.011,17.011,0,0,1,0,33.877V178.38a6.123,6.123,0,0,1-6.112,6.112h-3.3Zm7.844-72.108h.038v.006c1.642,0,3.612.9,3.618,2.385H204.6a2.009,2.009,0,0,1-.9,1.546c-2.366,1.79-6.4.482-6.408-1.559a1.566,1.566,0,0,0-3.131.026c.026,2.784,2.419,4.785,5.112,5.344l-.013,1.065a1.565,1.565,0,0,0,3.13.038l.013-1.058c2.8-.495,5.35-2.515,5.35-5.408h-.006c0-3.355-3.362-5.529-6.748-5.529v.006h-.083v-.006c-1.643,0-3.611-.9-3.618-2.392h.006a2.009,2.009,0,0,1,.9-1.546c2.366-1.79,6.4-.482,6.415,1.559a1.566,1.566,0,1,0,3.131-.026c-.026-2.784-2.419-4.785-5.112-5.344l.013-1.065a1.565,1.565,0,0,0-3.13-.038l-.013,1.058c-2.8.495-5.35,2.515-5.35,5.408h.006c0,3.355,3.362,5.529,6.748,5.529v-.006Zm-1.572-18.506V89.954H173.332a1.575,1.575,0,0,1-1.572-1.572V62.341H113.1a2.979,2.979,0,0,0-2.97,2.97h-.006v39.845h.006l-.006,21.3h17.467a6.679,6.679,0,0,1,6.664,6.664v48.235H196.4a2.979,2.979,0,0,0,2.97-2.97l.006-50.614a17.015,17.015,0,0,1,0-33.885v0Zm11.379,7.133a13.873,13.873,0,1,0,0,19.62A13.869,13.869,0,0,0,210.752,101.012ZM129.716,74.1a8.819,8.819,0,1,0,6.235,15.054A8.818,8.818,0,0,0,129.716,74.1Zm4.015,4.8a5.677,5.677,0,1,0,0,8.03A5.684,5.684,0,0,0,133.731,78.908ZM155.437,76.9,123.7,108.637a1.569,1.569,0,0,0,2.219,2.219l31.737-31.737A1.569,1.569,0,0,0,155.437,76.9Zm-3.8,19.12a8.819,8.819,0,1,0,6.235,15.054A8.822,8.822,0,0,0,151.633,96.021Zm4.015,4.806a5.677,5.677,0,1,0,0,8.03A5.684,5.684,0,0,0,155.648,100.827Zm-9.384,70.287h2.276a1.571,1.571,0,0,0,0-3.142h-2.276A1.571,1.571,0,0,0,146.264,171.113Zm9.211,0h32.6a1.571,1.571,0,0,0,0-3.142h-32.6A1.571,1.571,0,0,0,155.475,171.113Zm-9.211-12.623h2.276a1.571,1.571,0,0,0,0-3.143h-2.276A1.571,1.571,0,0,0,146.264,158.491Zm9.211,0h32.6a1.571,1.571,0,0,0,0-3.143h-32.6A1.571,1.571,0,0,0,155.475,158.491Zm-9.211-12.624h2.276a1.571,1.571,0,0,0,0-3.142h-2.276A1.571,1.571,0,0,0,146.264,145.866Zm9.211,0h32.6a1.571,1.571,0,0,0,0-3.142h-32.6A1.571,1.571,0,0,0,155.475,145.866Zm-9.211-12.623h2.276a1.571,1.571,0,0,0,0-3.142h-2.276A1.571,1.571,0,0,0,146.264,133.244Zm9.211,0h32.6a1.571,1.571,0,0,0,0-3.142h-32.6A1.571,1.571,0,0,0,155.475,133.244ZM123.95,192.882V175.237a1.575,1.575,0,0,0-1.572-1.572h-9.922a1.575,1.575,0,0,0-1.572,1.572v27.856a1.575,1.575,0,0,0,1.572,1.572h9.922a1.575,1.575,0,0,0,1.572-1.572Zm-3.142,8.641V176.809h-6.78v24.714Zm-25.49-10.212a1.575,1.575,0,0,0-1.572,1.572v10.212a1.575,1.575,0,0,0,1.572,1.572h9.922a1.575,1.575,0,0,0,1.572-1.572V192.883a1.575,1.575,0,0,0-1.572-1.572Zm8.352,3.142h-6.78v7.068h6.78ZM78.18,191.311a1.575,1.575,0,0,0-1.572,1.572v10.212a1.575,1.575,0,0,0,1.572,1.572H88.1a1.575,1.575,0,0,0,1.572-1.572V192.883a1.575,1.575,0,0,0-1.572-1.572Zm8.358,3.142h-6.78v7.068h6.78Zm8.781-20.789a1.575,1.575,0,0,0-1.572,1.572v10.212a1.575,1.575,0,0,0,1.572,1.572h9.922a1.575,1.575,0,0,0,1.572-1.572V175.237a1.575,1.575,0,0,0-1.572-1.572Zm8.352,3.144h-6.78v7.068h6.78Zm-25.49-3.144a1.575,1.575,0,0,0-1.572,1.572v10.212a1.575,1.575,0,0,0,1.572,1.572H88.1a1.575,1.575,0,0,0,1.572-1.572V175.237a1.575,1.575,0,0,0-1.572-1.572Zm8.358,3.144h-6.78v7.068h6.78Zm25.919-20.789a1.575,1.575,0,0,0-1.572,1.572V167.8a1.575,1.575,0,0,0,1.572,1.572h9.922a1.575,1.575,0,0,0,1.572-1.572V157.593a1.575,1.575,0,0,0-1.572-1.572Zm8.352,3.142h-6.78v7.068h6.78Zm-25.49-3.142a1.575,1.575,0,0,0-1.572,1.572V167.8a1.575,1.575,0,0,0,1.572,1.572h9.922a1.575,1.575,0,0,0,1.572-1.572V157.593a1.575,1.575,0,0,0-1.572-1.572Zm8.352,3.142h-6.78v7.068h6.78Zm-25.489-3.142a1.575,1.575,0,0,0-1.572,1.572V167.8a1.575,1.575,0,0,0,1.572,1.572H88.1a1.575,1.575,0,0,0,1.572-1.572V157.593a1.575,1.575,0,0,0-1.572-1.572Zm8.358,3.142H79.76v7.068h6.78Zm-9.48-24.219a2.741,2.741,0,0,0-2.739,2.739v7.876a2.753,2.753,0,0,0,2.739,2.739H123.5a2.753,2.753,0,0,0,2.739-2.739v-7.876a2.714,2.714,0,0,0-.8-1.931l-.006.006a2.733,2.733,0,0,0-1.931-.808Zm46.034,3.136H77.469v7.068h45.624Zm11.174,57.991,53.206-8.563a2.992,2.992,0,0,0,2.5-3.014H134.267ZM90.252,126.451h16.74l-.006-21.29h.006V79.908L86.306,83.237a2.99,2.99,0,0,0-2.464,3.419L90.25,126.45Zm37.343,3.142H72.964a3.536,3.536,0,0,0-3.522,3.522v73.359A3.536,3.536,0,0,0,72.964,210H127.6a3.536,3.536,0,0,0,3.522-3.522V133.116a3.542,3.542,0,0,0-3.528-3.522h0ZM174.9,64.561V86.813h22.252Z" transform="translate(-66.3 -59.199)" fill="#0259fa" fill-rule="evenodd"/>
</svg>
