<svg width="176" height="37" viewBox="0 0 176 37" fill="none" xmlns="http://www.w3.org/2000/svg">
<g opacity="0.9">
<path d="M69.2269 9.99683C67.9009 9.99683 66.7567 10.3015 65.7921 10.9119C64.8279 11.5224 64.1435 12.3364 63.7382 13.3575H63.5479C63.1985 12.3217 62.5967 11.5017 61.7438 10.8997C60.8909 10.2978 59.845 9.99683 58.6062 9.99683C57.3676 9.99683 56.3325 10.2941 55.4519 10.8875C54.5712 11.481 53.94 12.3047 53.5593 13.3563H53.3444V10.2356H49.2256V28.6022H53.5361V17.4334C53.5361 16.6755 53.6866 16.0126 53.9887 15.4423C54.2907 14.8733 54.695 14.4298 55.2031 14.1154C55.7115 13.801 56.2744 13.6426 56.8932 13.6426C57.8055 13.6426 58.5458 13.9253 59.1133 14.4919C59.6811 15.0573 59.9652 15.8152 59.9652 16.7644V28.6022H64.1921V17.147C64.1921 16.1101 64.4844 15.2681 65.0669 14.6174C65.6504 13.9679 66.4618 13.6426 67.5018 13.6426C68.3753 13.6426 69.1129 13.9082 69.7157 14.4383C70.3188 14.9683 70.6208 15.803 70.6208 16.9435V28.6022H74.9425V16.2746C74.9425 14.2263 74.4099 12.6678 73.3471 11.5992C72.2832 10.5317 70.9098 9.99683 69.2282 9.99683H69.2269Z" fill="#05081A"/>
<path d="M91.8164 12.2206C91.0425 11.4627 90.153 10.9034 89.1499 10.5403C88.1452 10.1772 87.0801 9.99683 85.9529 9.99683C84.2072 9.99683 82.6869 10.3977 81.3935 11.1983C80.1005 11.9988 79.0944 13.115 78.3751 14.5467C77.6557 15.9785 77.2979 17.6381 77.2979 19.5268C77.2979 21.4155 77.6557 23.1165 78.3689 24.5312C79.0836 25.9459 80.105 27.0389 81.435 27.8078C82.7646 28.5767 84.3454 28.9617 86.1785 28.9617C87.5992 28.9617 88.861 28.7448 89.9653 28.3098C91.068 27.876 91.9754 27.2619 92.6853 26.4686C93.3948 25.6754 93.8778 24.7444 94.1315 23.677L90.107 23.2225C89.9166 23.7404 89.6352 24.1754 89.2613 24.5263C88.889 24.8772 88.4485 25.1417 87.9401 25.3208C87.4317 25.4999 86.8642 25.5901 86.2379 25.5901C85.3014 25.5901 84.4838 25.389 83.785 24.9857C83.0859 24.5836 82.5426 24.0012 82.153 23.2396C81.7769 22.5048 81.5878 21.6238 81.5757 20.6027H94.3098V19.2758C94.3098 17.6649 94.0877 16.2758 93.6436 15.1085C93.1996 13.9411 92.5906 12.9785 91.8164 12.2206ZM81.5888 17.6856C81.6316 16.9667 81.8085 16.2965 82.1374 15.6824C82.506 14.9927 83.0242 14.4346 83.6916 14.0081C84.3587 13.5817 85.1316 13.3684 86.0136 13.3684C86.8387 13.3684 87.563 13.5561 88.1867 13.9302C88.809 14.3043 89.2956 14.8172 89.645 15.4667C89.9943 16.1162 90.1726 16.8558 90.1811 17.6844H81.5901L81.5888 17.6856Z" fill="#05081A"/>
<path d="M109.96 10.8096C109.019 10.2673 107.918 9.99683 106.656 9.99683C105.291 9.99683 104.146 10.3002 103.221 10.9058C102.297 11.5114 101.623 12.329 101.204 13.3575H100.989V10.2369H96.8701V28.6034H101.181V17.8416C101.181 16.9569 101.346 16.2039 101.675 15.5813C102.003 14.9598 102.461 14.4834 103.044 14.1519C103.628 13.8217 104.296 13.656 105.05 13.656C106.161 13.656 107.032 14.0033 107.663 14.6966C108.294 15.3899 108.609 16.3501 108.609 17.5784V28.6034H112.919V16.9094C112.927 15.4423 112.671 14.1946 112.151 13.1662C111.632 12.1378 110.901 11.353 109.96 10.8108V10.8096Z" fill="#05081A"/>
<path d="M123.952 25.1466C123.726 25.1868 123.477 25.2063 123.208 25.2063C122.85 25.2063 122.525 25.1503 122.231 25.0382C121.938 24.9261 121.701 24.7177 121.523 24.4106C121.344 24.1036 121.254 23.66 121.254 23.0776V13.583H124.861V10.2345H121.254V5.83447H116.944V10.2345H114.349V13.583H116.944V23.7941C116.935 24.9419 117.184 25.8984 117.688 26.6637C118.191 27.4289 118.877 27.9931 119.742 28.3562C120.607 28.7193 121.578 28.8838 122.658 28.8521C123.27 28.8363 123.788 28.7802 124.212 28.6852C124.637 28.5889 124.964 28.5024 125.194 28.422L124.467 25.0382C124.348 25.0698 124.175 25.1064 123.949 25.1454L123.952 25.1466Z" fill="#05081A"/>
<path d="M139.522 11.3299C138.801 10.8559 138.002 10.5147 137.13 10.3075C136.257 10.1004 135.379 9.99683 134.498 9.99683C133.221 9.99683 132.054 10.1869 130.998 10.5646C129.943 10.9436 129.05 11.509 128.32 12.262C127.589 13.0151 127.065 13.9497 126.748 15.0658L130.773 15.6397C130.988 15.0098 131.402 14.4639 132.017 14.0008C132.633 13.5378 133.469 13.3075 134.524 13.3075C135.524 13.3075 136.29 13.5549 136.822 14.0496C137.353 14.5443 137.62 15.2413 137.62 16.1418V16.2136C137.62 16.6292 137.467 16.9338 137.162 17.1288C136.856 17.3237 136.37 17.4675 135.703 17.5589C135.037 17.6503 134.167 17.7526 133.096 17.8635C132.207 17.9586 131.348 18.1121 130.518 18.3241C129.688 18.5361 128.945 18.8444 128.286 19.2514C127.627 19.6584 127.107 20.2006 126.727 20.8781C126.346 21.5556 126.155 22.4134 126.155 23.4492C126.155 24.6531 126.423 25.6656 126.958 26.4869C127.495 27.3082 128.224 27.9272 129.15 28.3463C130.074 28.7643 131.116 28.9739 132.275 28.9739C133.227 28.9739 134.058 28.8398 134.769 28.573C135.479 28.3061 136.071 27.9515 136.543 27.5092C137.015 27.0669 137.382 26.5905 137.645 26.0811H137.788V28.6034H141.931V16.3111C141.931 15.0914 141.711 14.0752 141.27 13.2624C140.829 12.4497 140.248 11.8051 139.525 11.3311L139.522 11.3299ZM137.63 22.0137C137.63 22.6913 137.457 23.3175 137.112 23.8915C136.766 24.4654 136.276 24.926 135.641 25.2721C135.007 25.6181 134.256 25.7924 133.391 25.7924C132.526 25.7924 131.755 25.5889 131.177 25.1819C130.597 24.7749 130.308 24.1742 130.308 23.3761C130.308 22.818 130.455 22.3623 130.749 22.0077C131.042 21.6531 131.442 21.3753 131.951 21.1767C132.459 20.978 133.034 20.8342 133.677 20.7465C133.964 20.7063 134.301 20.6588 134.689 20.6027C135.078 20.5467 135.47 20.4833 135.868 20.4114C136.265 20.3395 136.624 20.2554 136.946 20.1604C137.267 20.0654 137.495 19.9618 137.63 19.8497V22.0137Z" fill="#05081A"/>
<path d="M149.251 13.3783C149.169 13.3929 149.079 13.4002 148.982 13.4002C148.852 13.4002 148.734 13.3795 148.629 13.3393C148.523 13.2991 148.437 13.2235 148.373 13.1127C148.309 13.0018 148.276 12.841 148.276 12.6301V9.19395H149.581V7.98273H148.276V6.39014H146.715V7.98273H145.776V9.19395H146.715V12.8897C146.713 13.3052 146.803 13.6513 146.985 13.9278C147.167 14.2044 147.416 14.4091 147.729 14.5395C148.042 14.6711 148.394 14.7308 148.784 14.7187C149.005 14.7126 149.193 14.6931 149.346 14.6577C149.5 14.6224 149.618 14.5919 149.701 14.5627L149.438 13.3381C149.394 13.3503 149.333 13.3625 149.251 13.3771V13.3783Z" fill="#05081A"/>
<path d="M155.318 8.69973C155.038 8.42557 154.716 8.22329 154.353 8.09168C153.989 7.96007 153.605 7.89429 153.196 7.89429C152.564 7.89429 152.013 8.03927 151.546 8.32928C151.078 8.61929 150.714 9.02263 150.454 9.5405C150.194 10.0584 150.064 10.6591 150.064 11.3427C150.064 12.0263 150.194 12.6416 150.453 13.1534C150.711 13.6651 151.081 14.0612 151.563 14.339C152.043 14.6168 152.616 14.7569 153.279 14.7569C153.794 14.7569 154.25 14.6777 154.649 14.5205C155.049 14.3633 155.377 14.1416 155.634 13.854C155.892 13.5677 156.066 13.2301 156.158 12.8439L154.702 12.6794C154.632 12.867 154.53 13.0242 154.396 13.1509C154.261 13.2777 154.101 13.3739 153.918 13.4385C153.733 13.5031 153.528 13.536 153.301 13.536C152.963 13.536 152.667 13.4629 152.414 13.3179C152.16 13.1717 151.963 12.9621 151.822 12.6855C151.687 12.4198 151.617 12.1006 151.614 11.7314H156.223V11.2513C156.223 10.6688 156.143 10.1656 155.982 9.74278C155.821 9.31995 155.6 8.97144 155.32 8.69727L155.318 8.69973ZM151.622 10.6774C151.638 10.4178 151.696 10.1741 151.815 9.95234C151.949 9.70254 152.136 9.50151 152.377 9.34675C152.618 9.19199 152.899 9.11525 153.216 9.11525C153.515 9.11525 153.777 9.18346 154.003 9.31874C154.228 9.45399 154.404 9.64043 154.53 9.87435C154.657 10.1095 154.721 10.3776 154.725 10.6774H151.621H151.622Z" fill="#05081A"/>
<path d="M159.329 9.41647C159.57 9.24465 159.85 9.15935 160.169 9.15935C160.546 9.15935 160.846 9.26659 161.072 9.48225C161.298 9.69673 161.441 9.9648 161.5 10.2853H162.991C162.957 9.8064 162.815 9.38721 162.569 9.02775C162.322 8.66831 161.99 8.39047 161.575 8.19308C161.16 7.99569 160.684 7.89697 160.146 7.89697C159.5 7.89697 158.94 8.04199 158.468 8.332C157.996 8.62201 157.63 9.02532 157.372 9.54319C157.113 10.0611 156.983 10.6581 156.983 11.332C156.983 12.0058 157.111 12.598 157.364 13.1122C157.618 13.6276 157.982 14.031 158.454 14.3222C158.926 14.6134 159.493 14.7596 160.153 14.7596C160.708 14.7596 161.191 14.6585 161.601 14.455C162.011 14.2515 162.336 13.9688 162.574 13.6069C162.812 13.245 162.95 12.8283 162.988 12.3579H161.497C161.45 12.5968 161.365 12.8003 161.242 12.9684C161.118 13.1354 160.965 13.2633 160.783 13.351C160.601 13.4388 160.395 13.4826 160.166 13.4826C159.841 13.4826 159.558 13.3949 159.319 13.2207C159.078 13.0464 158.893 12.7966 158.761 12.4713C158.628 12.1471 158.563 11.7584 158.563 11.3052C158.563 10.8519 158.63 10.4741 158.763 10.1537C158.897 9.83319 159.085 9.58828 159.325 9.41647H159.329Z" fill="#05081A"/>
<path d="M169.587 9.0339C169.399 8.66227 169.135 8.37958 168.792 8.18582C168.451 7.9921 168.05 7.89582 167.59 7.89582C167.084 7.89582 166.669 8.00427 166.343 8.22239C166.018 8.44051 165.776 8.73658 165.621 9.11189H165.543V5.76709H164.019V14.6293H165.579V10.7337C165.579 10.4133 165.639 10.1403 165.762 9.91612C165.883 9.69069 166.053 9.51887 166.27 9.39947C166.487 9.28006 166.734 9.22034 167.009 9.22034C167.42 9.22034 167.739 9.34585 167.968 9.59443C168.196 9.84299 168.31 10.1927 168.31 10.6399V14.6305H169.87V10.3986C169.87 9.8625 169.775 9.40799 169.587 9.03511V9.0339Z" fill="#05081A"/>
<path d="M28.2814 11.7173V9.1731H21.5479L18.8023 11.7088V9.1731H12.0689L6.04883 14.7331V30.7894H12.7823L15.5278 28.2537V30.7894H22.2613L25.0165 28.2452V30.7894H31.75L37.7702 25.2294V9.1731H31.0366L28.2814 11.7173ZM35.9416 11.0081V24.4227L31.0366 28.9532H26.8437V24.0633L21.5479 28.9532H17.355V24.0718L12.0689 28.9532H7.87596V15.5386L12.7811 11.0081H16.974V15.8895L22.2601 11.0081H26.453V15.898L31.7488 11.0081H35.9416Z" fill="#05081A"/>
</g>
</svg>
