<svg width="181" height="36" viewBox="0 0 181 36" fill="none" xmlns="http://www.w3.org/2000/svg">
<g id="la cana">
<path d="M0 34.4422V1.53347C0 1.25761 0.0970353 1.02231 0.291106 0.827586C0.485177 0.63286 0.719679 0.535497 0.994612 0.535497H5.94341C6.21835 0.535497 6.45285 0.63286 6.64692 0.827586C6.84099 1.02231 6.93803 1.25761 6.93803 1.53347V27.9675C6.93803 28.2921 7.10784 28.4544 7.44746 28.4544H19.868C20.1429 28.4544 20.3774 28.5517 20.5715 28.7465C20.7656 28.9412 20.8626 29.1765 20.8626 29.4523V34.4422C20.8626 34.7181 20.7656 34.9534 20.5715 35.1481C20.3774 35.3428 20.1429 35.4402 19.868 35.4402H0.994612C0.719679 35.4402 0.485177 35.3428 0.291106 35.1481C0.0970353 34.9534 0 34.7181 0 34.4422Z" fill="#240E46"/>
<path d="M24.0638 34.4422L32.9668 1.29006C33.0153 1.07911 33.1285 0.900609 33.3064 0.754564C33.4843 0.608519 33.6865 0.535497 33.9129 0.535497H40.5598C40.7862 0.535497 40.9884 0.608519 41.1663 0.754564C41.3442 0.900609 41.4574 1.07911 41.5059 1.29006L50.3604 34.4422C50.3765 34.4909 50.3846 34.5477 50.3846 34.6126C50.3685 34.7911 50.2957 34.9615 50.1663 35.1237C50.0046 35.3347 49.7377 35.4402 49.3658 35.4402H44.1501C43.6811 35.4402 43.3657 35.1886 43.204 34.6856L41.6514 29.5497C41.5382 29.0629 41.2956 28.8195 40.9237 28.8195H33.3549C32.983 28.8195 32.7404 29.0629 32.6272 29.5497L31.2201 34.6856C31.1716 34.8966 31.0584 35.0751 30.8805 35.2211C30.7026 35.3671 30.5005 35.4402 30.2741 35.4402H25.0584C24.6864 35.4402 24.4196 35.3347 24.2579 35.1237C24.1285 34.9615 24.0557 34.7911 24.0395 34.6126C24.0395 34.5477 24.0476 34.4909 24.0638 34.4422ZM34.5193 21.2738C34.5032 21.355 34.4951 21.428 34.4951 21.4929C34.4951 21.7201 34.6326 21.8337 34.9075 21.8337H39.4682C39.7593 21.8337 39.9048 21.7201 39.9048 21.4929C39.9048 21.428 39.8967 21.355 39.8805 21.2738L37.4789 9.32252C37.4304 9.1927 37.3495 9.12779 37.2363 9.12779H37.1393C37.0261 9.12779 36.9452 9.1927 36.8967 9.32252L34.5193 21.2738Z" fill="#240E46"/>
<path d="M71.3045 24.9736C71.0619 22.8803 70.9406 20.5517 70.9406 17.9878C70.9406 15.4239 71.0619 13.0953 71.3045 11.002C71.4824 9.4929 71.8786 8.08114 72.4931 6.76673C73.1077 5.43611 73.9002 4.26775 74.8705 3.26166C75.857 2.25558 77.0619 1.46045 78.4851 0.876268C79.9083 0.292089 81.4527 0 83.1185 0C86.5633 0 89.3935 1.07099 91.6091 3.21298C93.8409 5.35497 94.9568 8.08925 94.9568 11.4158C94.9568 11.6917 94.8598 11.927 94.6657 12.1217C94.4716 12.3164 94.2371 12.4138 93.9622 12.4138H88.9892C88.7142 12.4138 88.4878 12.3245 88.3099 12.146C88.132 11.9513 88.0269 11.7079 87.9945 11.4158C87.8975 10.1014 87.4123 9.04665 86.539 8.25152C85.6657 7.44016 84.5255 7.03448 83.1185 7.03448C81.6792 7.03448 80.5471 7.40771 79.7223 8.15416C78.9137 8.88438 78.4446 9.83367 78.3153 11.002C78.0727 13.0953 77.9514 15.4239 77.9514 17.9878C77.9514 20.5517 78.0727 22.8803 78.3153 24.9736C78.4446 26.142 78.9137 27.0994 79.7223 27.8458C80.5471 28.5923 81.6792 28.9655 83.1185 28.9655C84.5255 28.9655 85.6657 28.568 86.539 27.7728C87.4123 26.9615 87.8975 25.8986 87.9945 24.5842C88.0269 24.2921 88.132 24.0568 88.3099 23.8783C88.4878 23.6836 88.7142 23.5862 88.9892 23.5862H93.9622C94.2371 23.5862 94.4716 23.6836 94.6657 23.8783C94.8598 24.073 94.9568 24.3083 94.9568 24.5842C94.9568 27.9108 93.8409 30.645 91.6091 32.787C89.3935 34.929 86.5633 36 83.1185 36C81.4527 36 79.9083 35.7079 78.4851 35.1237C77.0619 34.5396 75.857 33.7444 74.8705 32.7383C73.9002 31.716 73.1077 30.5477 72.4931 29.2333C71.8786 27.9026 71.4824 26.4828 71.3045 24.9736Z" fill="#240E46"/>
<path d="M98.061 34.4422L106.964 1.29006C107.012 1.07911 107.126 0.900609 107.304 0.754564C107.482 0.608519 107.684 0.535497 107.91 0.535497H114.557C114.783 0.535497 114.986 0.608519 115.163 0.754564C115.341 0.900609 115.455 1.07911 115.503 1.29006L124.358 34.4422C124.374 34.4909 124.382 34.5477 124.382 34.6126C124.366 34.7911 124.293 34.9615 124.163 35.1237C124.002 35.3347 123.735 35.4402 123.363 35.4402H118.147C117.678 35.4402 117.363 35.1886 117.201 34.6856L115.649 29.5497C115.535 29.0629 115.293 28.8195 114.921 28.8195H107.352C106.98 28.8195 106.738 29.0629 106.624 29.5497L105.217 34.6856C105.169 34.8966 105.056 35.0751 104.878 35.2211C104.7 35.3671 104.498 35.4402 104.271 35.4402H99.0556C98.6836 35.4402 98.4168 35.3347 98.2551 35.1237C98.1257 34.9615 98.0529 34.7911 98.0367 34.6126C98.0367 34.5477 98.0448 34.4909 98.061 34.4422ZM108.517 21.2738C108.5 21.355 108.492 21.428 108.492 21.4929C108.492 21.7201 108.63 21.8337 108.905 21.8337H113.465C113.756 21.8337 113.902 21.7201 113.902 21.4929C113.902 21.428 113.894 21.355 113.878 21.2738L111.476 9.32252C111.428 9.1927 111.347 9.12779 111.234 9.12779H111.136C111.023 9.12779 110.942 9.1927 110.894 9.32252L108.517 21.2738Z" fill="#240E46"/>
<path d="M128.359 34.4422V1.53347C128.359 1.25761 128.456 1.02231 128.65 0.827586C128.844 0.63286 129.079 0.535497 129.354 0.535497H135.273C135.904 0.535497 136.316 0.8357 136.51 1.43611L143.327 20.3976C143.376 20.5436 143.456 20.6004 143.57 20.568C143.699 20.5193 143.764 20.4219 143.764 20.2759V1.53347C143.764 1.25761 143.861 1.02231 144.055 0.827586C144.249 0.63286 144.483 0.535497 144.758 0.535497H149.731C150.006 0.535497 150.241 0.63286 150.435 0.827586C150.629 1.02231 150.726 1.25761 150.726 1.53347V34.4422C150.726 34.7181 150.629 34.9534 150.435 35.1481C150.241 35.3428 150.006 35.4402 149.731 35.4402H143.861C143.181 35.4402 142.737 35.1562 142.526 34.5882L135.783 17.0872C135.734 16.9412 135.645 16.8844 135.516 16.9168C135.386 16.9493 135.322 17.0385 135.322 17.1846V34.4422C135.322 34.7181 135.225 34.9534 135.03 35.1481C134.836 35.3428 134.602 35.4402 134.327 35.4402H129.354C129.079 35.4402 128.844 35.3428 128.65 35.1481C128.456 34.9534 128.359 34.7181 128.359 34.4422Z" fill="#240E46"/>
<path d="M154.679 34.4422L163.582 1.29006C163.631 1.07911 163.744 0.900609 163.922 0.754564C164.1 0.608519 164.302 0.535497 164.528 0.535497H171.175C171.402 0.535497 171.604 0.608519 171.782 0.754564C171.96 0.900609 172.073 1.07911 172.121 1.29006L180.976 34.4422C180.992 34.4909 181 34.5477 181 34.6126C180.984 34.7911 180.911 34.9615 180.782 35.1237C180.62 35.3347 180.353 35.4402 179.981 35.4402H174.765C174.296 35.4402 173.981 35.1886 173.819 34.6856L172.267 29.5497C172.154 29.0629 171.911 28.8195 171.539 28.8195H163.97C163.598 28.8195 163.356 29.0629 163.243 29.5497L161.836 34.6856C161.787 34.8966 161.674 35.0751 161.496 35.2211C161.318 35.3671 161.116 35.4402 160.889 35.4402H155.674C155.302 35.4402 155.035 35.3347 154.873 35.1237C154.744 34.9615 154.671 34.7911 154.655 34.6126C154.655 34.5477 154.663 34.4909 154.679 34.4422ZM165.135 21.2738C165.119 21.355 165.11 21.428 165.11 21.4929C165.11 21.7201 165.248 21.8337 165.523 21.8337H170.084C170.375 21.8337 170.52 21.7201 170.52 21.4929C170.52 21.428 170.512 21.355 170.496 21.2738L168.094 9.32252C168.046 9.1927 167.965 9.12779 167.852 9.12779H167.755C167.641 9.12779 167.561 9.1927 167.512 9.32252L165.135 21.2738Z" fill="#240E46"/>
</g>
</svg>
